<?xml version="1.0" encoding="utf-8"?>
<!-- Generator: Adobe Illustrator 23.0.4, SVG Export Plug-In . SVG Version: 6.00 Build 0)  -->
<svg version="1.1" id="Layer_1" xmlns="http://www.w3.org/2000/svg" xmlns:xlink="http://www.w3.org/1999/xlink" x="0px" y="0px"
	 viewBox="0 0 1020 247" style="enable-background:new 0 0 1020 247;" xml:space="preserve">
<style type="text/css">
	.st0{fill:#FFFFFF;}
</style>
<g>
	<path class="st0" d="M475.7,62.6v179.7h-29.1v-16.7c-4.9,6.1-11.3,10.8-18.6,13.8c-7.7,3.1-16,4.7-24.3,4.6
		c-11.7,0.2-23.3-2.7-33.5-8.2c-9.8-5.4-17.9-13.5-23.3-23.3c-5.7-10.1-8.4-21.6-8.4-34.7c0-13.1,2.8-24.6,8.4-34.6
		c5.4-9.8,13.5-17.9,23.3-23.2c10.3-5.6,21.8-8.4,33.5-8.2c8-0.1,16,1.4,23.5,4.4c7,2.8,13.3,7.3,18.2,13.1V62.7L475.7,62.6
		L475.7,62.6z M427.1,213c5.9-3.3,10.6-8.2,13.8-14.2c6.7-13.4,6.7-29.3,0-42.7c-3.2-5.9-8-10.8-13.8-14.2c-12.3-6.6-27-6.6-39.3,0
		c-5.9,3.3-10.6,8.2-13.8,14.2c-6.7,13.4-6.7,29.3,0,42.7c3.2,5.9,8,10.8,13.8,14.2c6,3.3,12.8,5.1,19.7,5
		C414.3,218.1,421.1,216.4,427.1,213z"/>
	<path class="st0" d="M548.9,106.1v7.7h35.6V138h-34.6v104.1h-30.3v-104h-21.3v-24.2h21.3v-8.2c0-13.9,4.1-24.8,12.1-32.9
		c8-8,19.5-12,34.1-12c11.6,0,20.7,2.4,27.4,7l-8.4,22.7c-4.9-3.5-10.7-5.3-16.7-5.4C555.2,85.3,548.9,92.2,548.9,106.1z"/>
	<path class="st0" d="M730,112.9v129.3h-28.8v-16.5c-4.9,5.9-11.1,10.5-18.2,13.4c-7.4,3.2-15.4,4.8-23.5,4.8
		c-17.3,0-30.9-4.8-40.8-14.4c-9.9-9.6-14.9-23.8-14.9-42.8v-73.8h30.3v69.8c0,11.6,2.6,20.3,7.8,26c5.3,5.7,12.7,8.6,22.4,8.6
		c10.8,0,19.5-3.4,25.8-10s9.5-16.4,9.5-29v-65.4L730,112.9L730,112.9z"/>
	<path class="st0" d="M778.9,239.8c-10-2.8-18-6.3-24-10.4l11.6-23c6.5,4.1,13.5,7.3,20.9,9.3c7.8,2.3,16,3.5,24.1,3.5
		c18.1,0,27.1-4.8,27.1-14.3c0-4.6-2.3-7.6-6.9-9.4c-4.7-1.8-12-3.5-22.1-5.1c-8.8-1.2-17.5-3.1-26-5.6c-6.7-2.1-12.7-5.9-17.5-11
		c-5-5.3-7.3-12.5-7.3-21.9c0-12.3,5.2-22,15.4-29.4s24.1-11,41.5-11c9,0,17.9,1,26.6,3.1c8.8,2,16.2,4.8,21.8,8.1l-11.6,23
		c-11.2-6.5-24-9.9-37-9.7c-8.8,0-15.6,1.3-20.2,4s-6.9,6.2-6.9,10.5c0,4.9,2.5,8.2,7.3,10.3c4.9,2.1,12.5,3.9,22.9,5.7
		c8.6,1.2,17.1,3.1,25.4,5.6c6.5,2,12.4,5.7,17.1,10.6c4.8,5,7.1,12.1,7.1,21.3c0,12.1-5.3,21.8-15.8,29.1
		c-10.5,7.2-24.8,10.9-42.9,10.9C799.2,243.9,788.9,242.5,778.9,239.8z"/>
	<path class="st0" d="M1015.6,187.2H914.1c1.5,9.1,6.5,17.2,13.9,22.6c7.5,5.6,16.9,8.3,28,8.3c14.2,0,25.9-4.7,35.1-14.1l16.2,18.7
		c-5.9,7-13.5,12.4-22,15.8c-8.8,3.6-18.9,5.4-30.1,5.4c-14.2,0-26.7-2.8-37.5-8.4c-10.5-5.3-19.2-13.5-25.1-23.6
		c-11.7-21.2-11.8-47-0.2-68.3c5.6-9.9,13.8-18.1,23.8-23.6c10.1-5.7,21.6-8.4,34.4-8.4c12.6,0,23.8,2.8,33.7,8.3
		c9.8,5.5,17.9,13.6,23.2,23.5c5.6,10.1,8.3,21.7,8.3,35C1016,181.3,1015.9,184.3,1015.6,187.2z M926.1,144.2
		c-6.7,5.8-10.8,13.4-12.2,22.9h73.3c-1.3-9.3-5.3-17-11.9-22.7s-14.9-8.7-24.7-8.7C941,135.7,932.8,138.5,926.1,144.2L926.1,144.2z
		"/>
</g>
<path class="st0" d="M121.5,51.2L121.5,51.2c39.5,0,70.6,31.4,70.6,71.5c0,39.1-33.2,72.3-72.6,72.3H50.9v-73.6
	C51,81.9,82,51.2,121.5,51.2 M121.5,4C54.6,4,2.5,56.1,2.5,121.2v121h117c66.9,0,121.2-54.3,121.2-119.4
	C240.9,57.3,187.9,4.2,122.5,4C122.1,4,121.8,4,121.5,4L121.5,4z"/>
</svg>
