<svg xmlns:dc="http://purl.org/dc/elements/1.1/" xmlns:cc="http://creativecommons.org/ns#" xmlns:rdf="http://www.w3.org/1999/02/22-rdf-syntax-ns#" xmlns:svg="http://www.w3.org/2000/svg" xmlns="http://www.w3.org/2000/svg" xmlns:xlink="http://www.w3.org/1999/xlink" xmlns:sodipodi="http://sodipodi.sourceforge.net/DTD/sodipodi-0.dtd" xmlns:inkscape="http://www.inkscape.org/namespaces/inkscape" version="1.1" id="Calque_1" x="0px" y="0px" viewBox="0 0 1028 239" style="enable-background:new 0 0 1028 239;" xml:space="preserve" sodipodi:docname="eth_transaction_lifecycle_02.svg" inkscape:version="0.92.5 (2060ec1f9f, 2020-04-08)" inkscape:export-filename="/home/stepd/Pictures/eth_transaction_lifecycle_02.png" inkscape:export-xdpi="96" inkscape:export-ydpi="96"><script xmlns="" src="chrome-extension://pdjmdhkokfeeelkbijocklkppofkcnib/static/js/inpage.js" async="false"/><metadata id="metadata121"><rdf:RDF><cc:Work rdf:about=""><dc:format>image/svg+xml</dc:format><dc:type rdf:resource="http://purl.org/dc/dcmitype/StillImage"/></cc:Work></rdf:RDF></metadata><defs id="defs119"><clipPath clipPathUnits="userSpaceOnUse" id="clipPath3846"><use x="0" y="0" xlink:href="#g3842" id="use3848" width="100%" height="100%"/></clipPath></defs><sodipodi:namedview pagecolor="#ffffff" bordercolor="#666666" borderopacity="1" objecttolerance="10" gridtolerance="10" guidetolerance="10" inkscape:pageopacity="0" inkscape:pageshadow="2" inkscape:window-width="1892" inkscape:window-height="1058" id="namedview117" showgrid="false" inkscape:zoom="0.87494146" inkscape:cx="754.08953" inkscape:cy="122.25737" inkscape:window-x="465" inkscape:window-y="123" inkscape:window-maximized="0" inkscape:current-layer="Calque_1"/>
<style type="text/css" id="style2">
	.st0{fill:none;stroke:#BCC5D0;stroke-width:2;stroke-miterlimit:10;}
	.st1{fill:#BCC5D0;}
	.st2{fill:#394962;}
	.st3{fill:#FFFFFF;}
	.st4{font-family:'Lato-Bold';}
	.st5{font-size:14px;}
	.st6{fill:#526178;}
	.st7{font-size:15px;}
</style>
<g id="g12">
	<g id="g10">
		<polyline class="st0" points="551,145.6 402.8,145.6 380.6,119.5   " id="polyline4"/>
		<g id="g8">
			<polygon class="st1" points="547.1,139.8 568.7,145.6 547.1,151.4    " id="polygon6"/>
		</g>
	</g>
</g>
<g id="g22">
	<g id="g20">
		<path class="st0" d="M963.8,89.5c17.3,0,31.2,14,31.2,31.2S981,152,963.8,152c-11,0-20.7-5.7-26.2-14.3" id="path14"/>
		<g id="g18">
			<polygon class="st1" points="944.8,139.5 932.5,120.8 933.8,143.2    " id="polygon16"/>
		</g>
	</g>
</g>
<g id="g32">
	<g id="g30">
		<polyline class="st0" points="359.2,135.8 403.9,220.1 816,220.1 876.5,121.2   " id="polyline24"/>
		<g id="g28">
			<polygon class="st1" points="355.9,142 350.9,120.1 366.2,136.5    " id="polygon26"/>
		</g>
	</g>
</g>
<g id="g42">
	<g id="g40">
		<polyline class="st0" points="377.7,135.4 415.8,200.1 566,200.1 596,170.1   " id="polyline34"/>
		<g id="g38">
			<polygon class="st1" points="374.7,141.7 368.8,120.1 384.7,135.9    " id="polygon36"/>
		</g>
	</g>
</g>
<g id="g52">
	<g id="g50">
		<polyline class="st0" points="864.7,56.9 849.5,40.1 145.8,40.1 115.8,70.1   " id="polyline44"/>
		<g id="g48">
			<polygon class="st1" points="866.4,50.1 876.5,70.1 857.7,57.9    " id="polygon46"/>
		</g>
	</g>
</g>
<path class="st2" d="M147.2,120.1H28.3c-4.2,0-7.6-3.4-7.6-7.6V78.7c0-4.2,3.4-7.6,7.6-7.6h118.9c4.2,0,7.6,3.4,7.6,7.6v33.9  C154.8,116.7,151.4,120.1,147.2,120.1z" id="path54"/>
<text transform="matrix(1 0 0 1 46.8701 100.3835)" class="st3 st4 st5" id="text56">UNKNOWN</text>

<path class="st2" d="M417.2,120.1H298.3c-4.2,0-7.6-3.4-7.6-7.6V78.7c0-4.2,3.4-7.6,7.6-7.6h118.9c4.2,0,7.6,3.4,7.6,7.6v33.9  C424.8,116.7,421.4,120.1,417.2,120.1z" id="path58"/>
<text transform="matrix(1 0 0 1 324.1924 100.3835)" class="st3 st4 st5" id="text60">PENDING</text>

<path class="st2" d="M695.2,170.1H576.3c-4.2,0-7.6-3.4-7.6-7.6v-33.9c0-4.2,3.4-7.6,7.6-7.6h118.9c4.2,0,7.6,3.4,7.6,7.6v33.9  C702.8,166.7,699.4,170.1,695.2,170.1z" id="path62"/>
<text transform="matrix(1 0 0 1 597.8101 150.3835)" class="st3 st4 st5" id="text64">REPLACED</text>

<path class="st2" d="M957.2,120.1H838.3c-4.2,0-7.6-3.4-7.6-7.6V78.7c0-4.2,3.4-7.6,7.6-7.6h118.9c4.2,0,7.6,3.4,7.6,7.6v33.9  C964.8,116.7,961.4,120.1,957.2,120.1z" id="path66"/>
<text transform="matrix(1 0 0 1 861.6968 100.3835)" class="st3 st4 st5" id="text68">IN_BLOCK</text>

<g id="g78">
	<g id="g76">
		<line class="st0" x1="154.8" y1="95.6" x2="273" y2="95.6" id="line70"/>
		<g id="g74">
			<polygon class="st1" points="269.1,101.4 290.7,95.6 269.1,89.8    " id="polygon72"/>
		</g>
	</g>
</g>
<g id="g88">
	<g id="g86">
		<line class="st0" x1="424.8" y1="95.6" x2="813" y2="95.6" id="line80"/>
		<g id="g84">
			<polygon class="st1" points="809.1,101.4 830.7,95.6 809.1,89.8    " id="polygon82"/>
		</g>
	</g>
</g>
<text transform="matrix(1 0 0 1 181.5425 86)" class="st6 st4 st7" id="text90">POOLED</text>

<text transform="matrix(1 0 0 1 451.9751 136)" class="st6 st4 st7" id="text92">REPLACED</text>

<text transform="matrix(1 0 0 1 586.1001 86)" class="st6 st4 st7" id="text94">MINED</text>

<text transform="matrix(1 0 0 1 484.1001 29)" class="st6 st4 st7" id="text96">MINED</text>

<text transform="matrix(1 0 0 1 454.5425 192)" class="st6 st4 st7" id="text98">POOLED</text>

<text transform="matrix(1 0 0 1 917.9517 174.1086)" class="st6 st4 st7" id="text100">CONFIRMED</text>

<text transform="matrix(1 0 0 1 694.7451 212)" class="st6 st4 st7" id="text102">FORKED</text>

<text transform="matrix(1 0 0 1 240 190)" class="st6 st4 st7" id="text103">SPECULATIVELY</text>

<text transform="matrix(1 0 0 1 255 210)" class="st6 st4 st7" id="text103">EXECUTED</text>

<g id="g112">
	<g id="g110">
		<polyline class="st0" points="702.8,145.6 838.7,145.6 850.6,133.8   " id="polyline104"/>
		<g id="g108">
			<polygon class="st1" points="851.9,140.7 863.1,121.2 843.7,132.5    " id="polygon106"/>
		</g>
	</g>
</g>
<text transform="matrix(1 0 0 1 735.1001 136)" class="st6 st4 st7" id="text114">MINED</text>

<g id="g3834" transform="matrix(-0.90025369,0.43536571,0.43536571,0.90025369,1113.7169,-390.48481)">
	<g id="g3832">
		<path id="path3826" d="m 963.8,89.5 c 17.3,0 31.2,14 31.2,31.2 0,17.2 -14,31.3 -31.2,31.3 -11,0 -20.7,-5.7 -26.2,-14.3" class="st0" inkscape:connector-curvature="0" style="fill:none;stroke:#bcc5d0;stroke-width:2;stroke-miterlimit:10"/>
		<g id="g3830">
			<polygon id="polygon3828" points="933.8,143.2 944.8,139.5 932.5,120.8 " class="st1" style="fill:#bcc5d0"/>
		</g>
	</g>
</g><g id="g3844" clip-path="url(#clipPath3846)" transform="translate(-8,-2)"><g inkscape:label="Clip" id="g3842">
</g></g></svg>