<?xml version="1.0" encoding="utf-8"?>
<!-- Generator: Adobe Illustrator 23.0.4, SVG Export Plug-In . SVG Version: 6.00 Build 0)  -->
<svg version="1.1" id="Calque_1" xmlns="http://www.w3.org/2000/svg" xmlns:xlink="http://www.w3.org/1999/xlink" x="0px" y="0px"
	 viewBox="0 0 600 600" style="enable-background:new 0 0 600 600;" xml:space="preserve">
<style type="text/css">
	.st0{display:none;}
	.st1{display:inline;fill:#B1B6C4;}
	.st2{display:inline;}
	.st3{fill:#B1B6C4;}
	.st4{fill:#FFFFFF;}
</style>
<g id="workers" class="st0">
	<path class="st1" d="M321.4,411.4c-7.7,0-13.9-6.2-13.9-13.9c0-7.7,6.2-13.9,13.9-13.9c21.1,0,38.3-17.4,38.3-38.8v-0.2
		c0.6-41.8,42.2-48.7,42.2-77c0-38.8-31-69.6-69.6-69.6c-38.5,0-69.6,30.7-69.6,69.6c0,7.7-6.2,13.9-13.9,13.9
		c-7.7,0-13.9-6.2-13.9-13.9c0-54.1,43.4-97.4,97.4-97.4c53.9,0,97.4,43.2,97.4,97.4c0,43.3-41.8,50.9-42.2,77.3
		C387.4,381.5,357.8,411.4,321.4,411.4L321.4,411.4z M383.3,267.5c0-28.1-22.9-51.1-51-51.1c-28.2,0-51.1,22.9-51.1,51.1
		c0,7.7,6.2,13.9,13.9,13.9c7.7,0,13.9-6.2,13.9-13.9c0-12.8,10.4-23.2,23.2-23.2s23.2,10.4,23.2,23.2c0,7.7,6.2,13.9,13.9,13.9
		C377.1,281.5,383.3,275.2,383.3,267.5z M459.3,226.3c6.9-3.3,9.8-11.7,6.5-18.6c-10-20.7-24.9-39.1-43.1-53.2
		c-6.1-4.7-14.8-3.6-19.5,2.5c-4.7,6.1-3.6,14.8,2.5,19.5c14.8,11.5,27,26.4,35.1,43.2C444.1,226.8,452.4,229.7,459.3,226.3z
		 M500.7,205.8c6.9-3.3,9.9-11.6,6.5-18.6c-13.8-28.8-32.4-52.3-55-69.9c-6.1-4.7-14.8-3.6-19.5,2.5s-3.6,14.8,2.5,19.5
		c19.2,14.9,35.1,35.1,47,60C485.5,206.2,493.8,209.2,500.7,205.8z M332.3,276.8c-7.7,0-13.9,6.2-13.9,13.9
		c0,7.7,6.2,13.9,13.9,13.9c7.7,0,13.9-6.2,13.9-13.9C346.2,283,340,276.8,332.3,276.8z"/>
	<path class="st1" d="M270.5,401.2l15.3,7.6c4.6,2.7,6.4,8.3,4.5,13.2c-4,11-11.8,21.1-19.1,29.9c-3.4,4-9.2,5-13.8,2.4l-13.2-7.6
		c-7.3,6.2-15.7,11.1-24.9,14.4v15.2c0,5.3-3.9,9.8-9.1,10.7c-11.6,2-23.3,1.9-34.5,0c-5.2-0.9-8.9-5.5-8.9-10.7V461
		c-9.2-3.2-17.7-8.2-24.9-14.4l-13.2,7.6c-4.6,2.6-10.4,1.6-13.8-2.4c-7.3-8.8-15.1-18.9-19.2-29.9c-1.9-5,0.2-10.5,4.8-13.2
		l15.1-7.7c-1.8-9.5-1.8-19.3,0-28.8l-15.1-7.6c-4.6-2.7-6.6-8.3-4.8-13.2c4-10.9,11.8-21,19.2-29.8c3.4-4,9.2-5,13.8-2.4l13.2,7.6
		c7.3-6.2,15.7-11.1,24.9-14.4v-15.3c0-5.3,3.9-9.8,9.1-10.7c11.6-2,23.3-1.9,34.5,0c5.2,0.9,8.9,5.4,8.9,10.7v15.3
		c9.2,3.2,17.7,8.2,24.9,14.4l13.2-7.6c4.6-2.6,10.4-1.6,13.8,2.4c7.4,8.8,15.3,18.9,19.3,29.9c1.8,5-0.2,10.6-4.8,13.2l-15.3,7.6
		C272.3,381.9,272.3,391.6,270.5,401.2z M169.2,410.7c34.9,26.9,74.8-13,48-48C182.2,335.9,142.3,375.8,169.2,410.7z"/>
</g>
<g id="dbs" class="st0">
	<g class="st2">
		<path class="st3" d="M510.6,242.2v24.6c0,21.7-54,39.4-120.6,39.4c-66.6,0-120.6-17.7-120.6-39.4v-24.6c0-21.7,54-39.4,120.6-39.4
			C456.5,202.8,510.6,220.5,510.6,242.2z M510.6,297.6V353c0,21.7-54,39.4-120.6,39.4c-66.6,0-120.6-17.7-120.6-39.4v-55.4
			c25.9,17.9,73.3,26.2,120.6,26.2C437.2,323.7,484.7,315.4,510.6,297.6z M510.6,383.7v55.4c0,21.7-54,39.4-120.6,39.4
			c-66.6,0-120.6-17.7-120.6-39.4v-55.4c25.9,17.8,73.3,26.1,120.6,26.1C437.2,409.9,484.7,401.6,510.6,383.7z"/>
		<g>
			<path class="st3" d="M249.1,327c-12.2,1.2-24.8,1.8-37.4,1.8c-47.3,0-94.7-8.3-120.6-26.1v55.4c0,21.7,54,39.4,120.6,39.4
				c13.1,0,25.6-0.7,37.4-2V327z"/>
			<path class="st3" d="M211.7,225.2c15.5,0,30.2-1,43.8-2.7c12.3-18,41.6-29.5,76.6-35.3c0-0.4,0.2-0.9,0.2-1.3v-24.6
				c0-21.7-54-39.4-120.6-39.4c-66.6,0-120.6,17.7-120.6,39.4v24.6C91.1,207.5,145.1,225.2,211.7,225.2z"/>
			<path class="st3" d="M211.7,311.3c13.1,0,25.6-0.7,37.4-2v-67.2c0-0.5,0.1-0.9,0.1-1.3c-12.2,1.2-24.9,1.8-37.5,1.8
				c-47.3,0-94.7-8.3-120.6-26.2v55.4C91.1,293.6,145.1,311.3,211.7,311.3z"/>
		</g>
	</g>
</g>
<g id="stream" class="st0">
	<path class="st1" d="M353,460.4c-7.2,0-13.1-5.8-13.1-13.1c0-7.2,5.8-13.1,13.1-13.1c19.8,0,35.9-16.3,35.9-36.4v-0.2
		c0.5-39.2,39.6-45.7,39.6-72.2c0-36.4-29.1-65.3-65.3-65.3c-36.1,0-65.3,28.8-65.3,65.3c0,7.2-5.8,13.1-13.1,13.1
		c-7.2,0-13-5.9-13-13.1c0-50.8,40.7-91.4,91.4-91.4c50.6,0,91.4,40.5,91.4,91.4c0,40.6-39.2,47.8-39.6,72.5
		C415,432.4,387.2,460.4,353,460.4L353,460.4z M411.2,325.5c0-26.4-21.5-47.9-47.9-47.9c-26.4,0-47.9,21.5-47.9,47.9
		c0,7.2,5.8,13.1,13,13.1c7.2,0,13.1-5.9,13.1-13.1c0-12,9.8-21.8,21.8-21.8c12,0,21.8,9.8,21.8,21.8c0,7.2,5.8,13.1,13.1,13.1
		C405.3,338.6,411.2,332.7,411.2,325.5z M482.4,286.9c6.5-3.1,9.2-10.9,6.1-17.4c-9.4-19.4-23.4-36.7-40.5-49.9
		c-5.7-4.4-13.9-3.4-18.3,2.4c-4.4,5.7-3.3,13.9,2.4,18.3C446,251,457.4,265,465,280.8C468.1,287.3,475.9,290,482.4,286.9z
		 M521.3,267.6c6.5-3.1,9.2-10.9,6.1-17.4c-13-27-30.4-49.1-51.6-65.6c-5.7-4.4-13.9-3.4-18.3,2.3c-4.4,5.7-3.4,13.9,2.3,18.3
		c18,14,32.9,32.9,44.1,56.3C507,268,514.8,270.8,521.3,267.6z M363.3,334.2c-7.2,0-13.1,5.8-13.1,13.1c0,7.2,5.8,13,13.1,13
		c7.2,0,13.1-5.9,13.1-13C376.3,340.1,370.5,334.2,363.3,334.2z"/>
	<polygon class="st1" points="297.9,178.1 71.5,178.1 161.5,308.4 162.9,308.4 162.9,407 206.5,384 206.5,308.4 207.9,308.4 	"/>
</g>
<g id="Layer_4" class="st0">
	<g class="st2">
		<path class="st3" d="M413.5,423.7c-17,0-33.5-4.8-46.5-13.2v47.8v22.8l46.5-37.3l46.5,37.3v-22.8v-47.8
			C446,418.9,430.5,423.7,413.5,423.7z"/>
		<g>
			<path class="st3" d="M413.5,299.2c-20,0-36.3,16.3-36.3,36.4c0,20,16.3,36.4,36.3,36.4c20.1,0,36.4-16.3,36.4-36.4
				C449.9,315.5,433.5,299.2,413.5,299.2z"/>
			<path class="st3" d="M413.5,265.7c-38.5,0-69.8,31.2-69.8,69.8c0,38.5,31.2,69.8,69.8,69.8c38.5,0,69.8-31.2,69.8-69.8
				C483.3,297,452,265.7,413.5,265.7z M413.5,377.4c-23.1,0-41.8-18.8-41.8-41.8s18.8-41.8,41.8-41.8c23.1,0,41.9,18.8,41.9,41.8
				S436.6,377.4,413.5,377.4z"/>
		</g>
		<path class="st3" d="M112,148v219h218.9c-3.6-10-5.6-20.3-5.6-31.3c0-48.7,40-88.3,88.7-88.3c2.5,0,4,0,8,0.2V148H112z M295.6,316
			H162.9c-3.9,0-7.1-3.1-7.1-7c0-3.9,3.2-7,7.1-7h132.7c3.9,0,7.1,3.1,7.1,7C302.7,312.9,299.5,316,295.6,316z M320.5,266H162.9
			c-3.9,0-7.1-3.1-7.1-7s3.2-7,7.1-7h157.5c3.9,0,7.1,3.1,7.1,7C327.6,262.9,324.4,266,320.5,266z M370.2,216H162.9
			c-3.9,0-7.1-3.1-7.1-7s3.2-7,7.1-7h207.3c3.9,0,7.1,3.1,7.1,7S374.1,216,370.2,216z"/>
	</g>
</g>
<g id="Layer_5" class="st0">
	<g class="st2">
		<path class="st3" d="M510.9,252.5c0-13.8-7.6-25.8-18.8-32.2c2.4-4.9,3.9-10.4,3.9-16.3c0-15.6-9.6-28.9-23.1-34.5
			c0.5-2.1,0.8-4.3,0.8-6.5c0-16.5-13.4-29.8-29.8-29.8c-0.4,0-0.7,0.1-1,0.1c-3.3-12.9-14.9-22.5-28.8-22.5
			c-16.5,0-29.8,13.4-29.8,29.8v34.5c0,12.2,8.4,22.3,19.7,25.2c1.6,0.4,2.7,1.9,2.7,3.6v7.5c0,2.4-2.2,4.1-4.5,3.7
			c-6.7-1.4-12.8-4.4-17.9-8.6v109.3c0,18.5,15,33.5,33.6,33.5c14.8,0,27.2-9.6,31.7-22.9c1.8,0.3,3.7,0.6,5.6,0.6
			c18.5,0,33.5-15,33.5-33.5c0-2.3-0.2-4.4-0.7-6.6C501.4,281.3,510.9,268,510.9,252.5z"/>
		<path class="st3" d="M329,327.8c0,6.9-0.7,13.7-1.6,20.4c2.7,0.7,5.4,1.1,8.3,1.1c18.5,0,33.5-15,33.5-33.5V206.6
			c-5.1,4.2-11.2,7.2-17.9,8.6c-2.3,0.5-4.5-1.3-4.5-3.7v-7.5c0-1.7,1.1-3.2,2.7-3.6c11.3-2.9,19.7-13,19.7-25.2v-34.5
			c0-16.5-13.4-29.8-29.8-29.8c-13.9,0-25.5,9.6-28.8,22.5c-0.4,0-0.7-0.1-1-0.1c-16.5,0-29.8,13.4-29.8,29.8c0,2.3,0.3,4.4,0.8,6.5
			c-13.4,5.5-22.9,18.6-23.1,34C300.2,228.5,329,274.8,329,327.8z"/>
		<path class="st3" d="M301.3,382.7c-3.4-3.4-7.4-6-11.6-7.9c7.3-15.2,11.5-32.1,11.4-50c-0.2-63.4-51.9-114.7-115.3-114.5
			c-63.3,0.2-114.7,51.9-114.5,115.3c0.2,63.4,51.9,114.8,115.3,114.5c17.9-0.1,34.8-4.3,49.9-11.7c2,4.2,4.5,8.1,8,11.5l72.4,71.9
			c7.9,7.8,18.2,11.8,28.5,11.7c10.3,0,20.6-4,28.5-11.9c15.7-15.8,15.6-41.3-0.2-57L301.3,382.7z M186.5,399.8
			c-41.1,0.1-74.7-33.2-74.8-74.4c-0.1-41.1,33.2-74.7,74.4-74.8c41.1-0.1,74.7,33.2,74.8,74.4C261,366.1,227.6,399.7,186.5,399.8z"
			/>
	</g>
</g>
<g id="Layer_7" class="st0">
	<path class="st1" d="M393.6,259c1.4,0,2.6,0.2,3.9,0.2c-22.9-27.8-57.5-45.5-96.5-45.5v41.6c18,0,35.1,5.7,48.8,15.6
		c13-7.7,28.1-12,43.6-12H393.6z"/>
	<path class="st1" d="M197.3,339h7.7v10c0,5.7,4.7,10,10.5,10h26c5.7,0,10.5-4.3,10.5-10v-10h7.7c11.5,0,20.3-9.7,20.3-21.2V172.2
		c0-11.5-9-20.8-20-20.8v-10.4c0-5.7-5-9.9-10.7-9.9h-41.6c-5.7,0-10.7,4.2-10.7,9.9v10.4c-11,0-21,9.3-21,20.8v145.6
		C176,329.3,185.8,339,197.3,339z"/>
	<path class="st1" d="M302,385.2c0-2.9-2.3-5.2-5.2-5.2H161.2c-2.9,0-5.2,2.3-5.2,5.2v10.6c0,2.9,2.3,5.2,5.2,5.2h135.6
		c2.9,0,5.2-2.3,5.2-5.2L302,385.2L302,385.2z"/>
	<path class="st1" d="M393.6,432c-20.6,0-39.6-7.2-54.4-19.3c-11.4,5.8-24.2,9.3-37.9,9.3H124.4c-17.2,0-31.2,13.7-31.2,30.9
		c0,5.7,4.7,10.1,10.4,10.1h312.1c5.7,0,10.4-4.4,10.4-10.2c0-9.5-4.3-17.9-11-23.7c-6.9,1.8-14,2.9-21.3,2.9L393.6,432L393.6,432z"
		/>
	<path class="st1" d="M396.4,419.2c-0.8,0-1.7,0-2.5,0c-16,0.1-30.8-5.1-43-13.8c0,0,0,0-0.1,0.1c-18.5-13.3-30.7-35-30.8-59.6
		c-0.1-28.7,16.4-53.6,40.3-65.9c9.9-5.1,21.1-7.9,33-8c4.9,0,9.7,0.5,14.3,1.4l0,0c33.8,6.6,59.4,36.3,59.5,72
		c0,11.5-2.6,22.3-7.3,32c2.7,1.2,5.2,2.9,7.4,5l46.4,46.1c10.1,10,10.2,26.4,0.1,36.5c-5,5.1-11.6,7.6-18.2,7.6
		c-6.6,0-13.2-2.5-18.3-7.5l-46.4-46.1c-2.2-2.2-3.9-4.7-5.1-7.4C416.8,416.1,406.9,418.8,396.4,419.2 M405.7,299.4
		c-3.9-1-8-1.6-12.2-1.6c-6.3,0-12.3,1.3-17.8,3.5c-17.5,7.1-29.9,24.4-29.9,44.4c0.1,17.4,9.4,32.6,23.3,40.9
		c7.2,4.3,15.6,6.8,24.6,6.8l4.6-0.3c6.3-0.6,12.2-2.5,17.5-5.3c15.2-8,25.6-24,25.5-42.4c0-15.6-7.6-29.4-19.2-38.1
		C417.3,303.7,411.7,301,405.7,299.4"/>
</g>
<g id="on_demand_networks">
	<g id="Layer_3">
		<path class="st4" d="M474.7,334.8h-164v-39.5h-28.1v39.5h-164c-5.2,0-9.4,4.2-9.4,9.4v9.4c0,5.2,4.2,9.4,9.4,9.4h60.9v42.2h-32.8
			c-10.3,0-18.7,8.4-18.7,18.7v56.2c0,10.4,8.4,18.7,18.7,18.7h93.7c10.3,0,18.7-8.4,18.7-18.7v-56.2c0-10.4-8.4-18.7-18.7-18.7
			h-32.8v-42.2h178v42.2h-32.8c-10.4,0-18.7,8.4-18.7,18.7v56.2c0,10.4,8.4,18.7,18.7,18.7h93.7c10.3,0,18.7-8.4,18.7-18.7v-56.2
			c0-10.4-8.4-18.7-18.7-18.7h-32.8v-42.2h60.9c5.2,0,9.4-4.2,9.4-9.4v-9.4C484.1,339,479.9,334.8,474.7,334.8z M231.1,433.2v37.5
			h-75v-37.5H231.1L231.1,433.2z M437.2,433.2v37.5h-75v-37.5H437.2L437.2,433.2z"/>
		<path class="st4" d="M296.7,188.4c25.7,0,46.6-20.9,46.6-46.6s-20.9-46.6-46.6-46.6s-46.6,20.9-46.6,46.6
			C250.1,167.6,270.9,188.4,296.7,188.4z M329.3,200.1h-6.1c-8.1,3.7-17.1,5.8-26.5,5.8c-9.5,0-18.4-2.1-26.5-5.8h-6.1
			c-27,0-48.9,21.9-48.9,48.9v15.1c0,9.6,7.8,17.5,17.5,17.5h128.1c9.6,0,17.5-7.8,17.5-17.5V249C378.2,222,356.3,200.1,329.3,200.1
			z"/>
	</g>
</g>
</svg>
