<?xml version="1.0" encoding="utf-8"?>
<!-- Generator: Adobe Illustrator 23.0.4, SVG Export Plug-In . SVG Version: 6.00 Build 0)  -->
<svg version="1.1" id="Calque_1" xmlns="http://www.w3.org/2000/svg" xmlns:xlink="http://www.w3.org/1999/xlink" x="0px" y="0px"
	 viewBox="0 0 500 500" style="enable-background:new 0 0 500 500;" xml:space="preserve">
<style type="text/css">
	.st0{display:none;}
	.st1{display:inline;}
	.st2{fill:#7D7FFD;}
	.st3{fill:#FFFFFF;}
	.st4{display:inline;fill:#FF4660;}
	.st5{fill-rule:evenodd;clip-rule:evenodd;fill:#772BAD;}
	.st6{fill-rule:evenodd;clip-rule:evenodd;fill:#7B27AB;}
	.st7{fill-rule:evenodd;clip-rule:evenodd;fill:#762EAF;}
	.st8{fill-rule:evenodd;clip-rule:evenodd;fill:#7233B1;}
	.st9{fill-rule:evenodd;clip-rule:evenodd;fill:#6F37B3;}
	.st10{fill-rule:evenodd;clip-rule:evenodd;fill:#4C64CA;}
	.st11{fill-rule:evenodd;clip-rule:evenodd;fill:#4272D1;}
	.st12{fill-rule:evenodd;clip-rule:evenodd;fill:#6C3BB5;}
	.st13{fill-rule:evenodd;clip-rule:evenodd;fill:#752FAF;}
	.st14{fill-rule:evenodd;clip-rule:evenodd;fill:#693FB7;}
	.st15{fill-rule:evenodd;clip-rule:evenodd;fill:#5060C8;}
	.st16{fill-rule:evenodd;clip-rule:evenodd;fill:#476CCE;}
	.st17{fill-rule:evenodd;clip-rule:evenodd;fill:#4A68CC;}
	.st18{fill-rule:evenodd;clip-rule:evenodd;fill:#397ED7;}
	.st19{fill-rule:evenodd;clip-rule:evenodd;fill:#535CC6;}
	.st20{fill-rule:evenodd;clip-rule:evenodd;fill:#6643B9;}
	.st21{fill-rule:evenodd;clip-rule:evenodd;fill:#5854C2;}
	.st22{fill-rule:evenodd;clip-rule:evenodd;fill:#5B50C0;}
	.st23{fill-rule:evenodd;clip-rule:evenodd;fill:#3682D9;}
	.st24{fill-rule:evenodd;clip-rule:evenodd;fill:#5558C4;}
	.st25{fill-rule:evenodd;clip-rule:evenodd;fill:#6149BC;}
	.st26{fill-rule:evenodd;clip-rule:evenodd;fill:#5E4DBE;}
	.st27{fill-rule:evenodd;clip-rule:evenodd;fill:#446FD0;}
	.st28{fill-rule:evenodd;clip-rule:evenodd;fill:#3F76D3;}
	.st29{fill-rule:evenodd;clip-rule:evenodd;fill:#3683DA;}
	.st30{fill-rule:evenodd;clip-rule:evenodd;fill:#6346BB;}
	.st31{fill-rule:evenodd;clip-rule:evenodd;fill:#6149BD;}
	.st32{fill-rule:evenodd;clip-rule:evenodd;fill:#6446BB;}
	.st33{fill-rule:evenodd;clip-rule:evenodd;fill:#3C7AD5;}
	.st34{fill-rule:evenodd;clip-rule:evenodd;fill:#5C50C0;}
	.st35{fill-rule:evenodd;clip-rule:evenodd;fill:#3687DB;}
	.st36{fill-rule:evenodd;clip-rule:evenodd;fill:#3B7BD6;}
	.st37{fill-rule:evenodd;clip-rule:evenodd;fill:#3A7DD7;}
	.st38{fill-rule:evenodd;clip-rule:evenodd;fill:#4470D0;}
	.st39{fill-rule:evenodd;clip-rule:evenodd;fill:#3F77D4;}
	.st40{fill-rule:evenodd;clip-rule:evenodd;fill:#4174D2;}
	.st41{fill-rule:evenodd;clip-rule:evenodd;fill:#3B7DD6;}
	.st42{fill-rule:evenodd;clip-rule:evenodd;fill:#3E79D5;}
	.st43{fill-rule:evenodd;clip-rule:evenodd;fill:#5166CB;}
	.st44{fill-rule:evenodd;clip-rule:evenodd;fill:#3E8CDD;}
	.st45{fill-rule:evenodd;clip-rule:evenodd;fill:#5A5FC7;}
	.st46{fill-rule:evenodd;clip-rule:evenodd;fill:#4379D4;}
	.st47{fill-rule:evenodd;clip-rule:evenodd;fill:#5563C9;}
	.st48{fill-rule:evenodd;clip-rule:evenodd;fill:#3D82D9;}
	.st49{fill-rule:evenodd;clip-rule:evenodd;fill:#4F81D7;}
	.st50{fill-rule:evenodd;clip-rule:evenodd;fill:#4C71D0;}
	.st51{fill-rule:evenodd;clip-rule:evenodd;fill:#5470CF;}
	.st52{fill-rule:evenodd;clip-rule:evenodd;fill:#7FA9E4;}
	.st53{fill-rule:evenodd;clip-rule:evenodd;fill:#5E5CC5;}
	.st54{fill-rule:evenodd;clip-rule:evenodd;fill:#FEFEFE;}
	.st55{fill-rule:evenodd;clip-rule:evenodd;fill:#703FB7;}
	.st56{fill-rule:evenodd;clip-rule:evenodd;fill:#684BBD;}
	.st57{fill-rule:evenodd;clip-rule:evenodd;fill:#6945BA;}
	.st58{fill-rule:evenodd;clip-rule:evenodd;fill:#904483;}
	.st59{fill-rule:evenodd;clip-rule:evenodd;fill:#C92D45;}
	.st60{fill-rule:evenodd;clip-rule:evenodd;fill:#A43C6E;}
	.st61{fill-rule:evenodd;clip-rule:evenodd;fill:#BE3151;}
	.st62{fill-rule:evenodd;clip-rule:evenodd;fill:#C62F4A;}
	.st63{fill-rule:evenodd;clip-rule:evenodd;fill:#9E3E75;}
	.st64{fill-rule:evenodd;clip-rule:evenodd;fill:#97417D;}
	.st65{fill-rule:evenodd;clip-rule:evenodd;fill:#B83458;}
	.st66{fill-rule:evenodd;clip-rule:evenodd;fill:#AE3863;}
	.st67{fill-rule:evenodd;clip-rule:evenodd;fill:#A73A6A;}
	.st68{fill-rule:evenodd;clip-rule:evenodd;fill:#B3365E;}
	.st69{fill-rule:evenodd;clip-rule:evenodd;fill:#FDFDFD;}
	.st70{fill-rule:evenodd;clip-rule:evenodd;fill:#2857FC;}
	.st71{fill-rule:evenodd;clip-rule:evenodd;fill:#069BF9;}
	.st72{fill-rule:evenodd;clip-rule:evenodd;fill:#9E2DFA;}
	.st73{fill-rule:evenodd;clip-rule:evenodd;fill:#02BEFB;}
	.st74{fill-rule:evenodd;clip-rule:evenodd;fill:#762AFB;}
	.st75{fill-rule:evenodd;clip-rule:evenodd;fill:#0E88FB;}
	.st76{fill-rule:evenodd;clip-rule:evenodd;fill:#9D10F9;}
	.st77{fill-rule:evenodd;clip-rule:evenodd;fill:#404BFB;}
	.st78{fill-rule:evenodd;clip-rule:evenodd;fill:#952AF9;}
	.st79{fill-rule:evenodd;clip-rule:evenodd;fill:#305DF8;}
	.st80{fill-rule:evenodd;clip-rule:evenodd;fill:#F477F9;}
	.st81{fill-rule:evenodd;clip-rule:evenodd;fill:#04D8F8;}
	.st82{fill-rule:evenodd;clip-rule:evenodd;fill:#B72EFA;}
	.st83{fill-rule:evenodd;clip-rule:evenodd;fill:#1E70FC;}
	.st84{fill-rule:evenodd;clip-rule:evenodd;fill:#A444F7;}
	.st85{fill-rule:evenodd;clip-rule:evenodd;fill:#5534FB;}
	.st86{fill-rule:evenodd;clip-rule:evenodd;fill:#A120F8;}
	.st87{fill-rule:evenodd;clip-rule:evenodd;fill:#CD7CFA;}
	.st88{fill-rule:evenodd;clip-rule:evenodd;fill:#F49EFA;}
	.st89{fill-rule:evenodd;clip-rule:evenodd;fill:#B85AF7;}
	.st90{fill-rule:evenodd;clip-rule:evenodd;fill:#A571F9;}
	.st91{fill-rule:evenodd;clip-rule:evenodd;fill:#6246F9;}
	.st92{fill-rule:evenodd;clip-rule:evenodd;fill:#2F69F9;}
	.st93{fill-rule:evenodd;clip-rule:evenodd;fill:#E1A7F8;}
	.st94{fill-rule:evenodd;clip-rule:evenodd;fill:#821EF9;}
	.st95{fill-rule:evenodd;clip-rule:evenodd;fill:#CC56FA;}
	.st96{fill-rule:evenodd;clip-rule:evenodd;fill:#2967FB;}
	.st97{fill-rule:evenodd;clip-rule:evenodd;fill:#E569F9;}
	.st98{fill-rule:evenodd;clip-rule:evenodd;fill:#E049F7;}
	.st99{fill-rule:evenodd;clip-rule:evenodd;fill:#A345F8;}
	.st100{fill-rule:evenodd;clip-rule:evenodd;fill:#A030F7;}
	.st101{fill-rule:evenodd;clip-rule:evenodd;fill:#973DF7;}
	.st102{fill-rule:evenodd;clip-rule:evenodd;fill:#AE76F6;}
	.st103{fill-rule:evenodd;clip-rule:evenodd;fill:#B9FDFE;}
	.st104{fill-rule:evenodd;clip-rule:evenodd;fill:#2D8AF9;}
	.st105{fill-rule:evenodd;clip-rule:evenodd;fill:#9F3BF6;}
	.st106{fill-rule:evenodd;clip-rule:evenodd;fill:#B66FFB;}
	.st107{fill-rule:evenodd;clip-rule:evenodd;fill:#A452F8;}
	.st108{display:inline;fill-rule:evenodd;clip-rule:evenodd;fill:#2DAFFB;}
	.st109{display:inline;fill-rule:evenodd;clip-rule:evenodd;fill:#2861E6;}
	.st110{display:inline;fill:#0B0F2B;}
	.st111{display:inline;fill:#F6240F;}
	.st112{fill:#111111;}
	.st113{fill:#7D7FFF;}
	.st114{fill:#6D95FF;}
	.st115{fill:#45C8FE;}
	.st116{fill:#5CA9FF;}
	.st117{fill:#A366FE;}
	.st118{fill:#8D6AFF;}
	.st119{display:inline;fill:#F17324;}
	.st120{fill:url(#Fill-19_1_);}
	.st121{fill:#4D4D4D;}
	.st122{fill-rule:evenodd;clip-rule:evenodd;fill:#43295C;}
	.st123{fill-rule:evenodd;clip-rule:evenodd;fill:#EFB431;}
	.st124{display:inline;fill:#FFFFFF;}
	.st125{display:inline;fill:#B7B7B7;}
</style>
<g id="sense_chat" class="st0">
	<g class="st1">
		<ellipse class="st2" cx="249.8" cy="229.6" rx="181.8" ry="160.4"/>
		<polyline class="st2" points="175.5,363.6 150.5,447.5 228.5,382.7 		"/>
		<polygon class="st3" points="280.9,117.7 184.7,198.1 240.7,264.9 222,338.5 317.2,258 262.3,190.3 		"/>
	</g>
</g>
<g id="dfuse" class="st0">
	<path class="st4" d="M248.4,404c85.9,0,155.6-70.1,155.6-153.8S336.7,97.6,250.7,97.6c-85.9,0-153.2,66.7-153.2,150.4v156H248.4z"
		/>
</g>
<g id="Layer_4" class="st0">
	<g class="st1">
		<path class="st5" d="M90.5,356.4c1.3-7.4,4.5-14,8.8-20c2.1,0.5,3.3,2.2,4.6,3.6c27.8,27.8,55.7,55.6,83.5,83.5
			c1.5,1.5,3.9,2.7,3.5,5.6c-9.2,1.6-18.5,2.6-27.9,1.1c-23.3-23.2-46.5-46.5-69.7-69.7C92.1,359.3,91.2,357.9,90.5,356.4z"/>
		<path class="st6" d="M90.5,356.4c5.7,5.5,11.4,11,17,16.6c17.5,17.4,34.9,34.9,52.3,52.3c1.4,1.4,3.2,2.5,3.2,4.8
			c-28.1-0.6-50.7-11.8-67.1-34.9C87.5,383.4,86.9,370.1,90.5,356.4z"/>
		<path class="st7" d="M190.9,429c-1.2-1.4-2.3-2.8-3.6-4.1c-28-28-56-56.1-84.1-84.1c-1.4-1.4-2.6-3-3.9-4.5c1.6-2.6,3.2-5.1,5.7-7
			c1.5-0.7,2.5,0.3,3.5,1.2c9.5,9.2,18.6,18.9,28.3,27.8c0.5,0.4,0.7,1.1,1,1.7c3,9.2,10.1,13.9,18.4,17.5
			c14,15.4,29.2,29.5,43.6,44.3c1.3,1.4,3.2,2.5,2.9,4.8C198.9,427.9,195,429.1,190.9,429z"/>
		<path class="st8" d="M233.6,413.9c-5.9,3.9-12.1,7-18.9,9.1c-5.5-7.1-12.3-12.8-18.5-19.2c-5.7-5.9-11.7-11.6-17.4-17.5
			c-1.8-1.8-4-3.6-3.2-6.8c5.7-2.5,11.8-3.8,17.6-6.2c1.8-0.1,3.1,0.7,4.3,2c10.6,11.7,22.2,22.4,33.2,33.7
			C232.1,410.4,234,411.5,233.6,413.9z"/>
		<path class="st9" d="M233.6,413.9c-11.2-11.3-22.4-22.8-33.8-33.9c-2-2-2.7-5.5-6.3-5.8c0-0.2-0.1-0.4,0-0.5
			c7.3-6.4,14.2-13.3,22.2-18.9c1.4,0.2,2.2,0.9,2.5,2.2c0,2.8-2.5,3.9-3.8,5.8c-0.8,1.1-3.1,1.7-1.6,3.8
			c11.5,10.6,22.2,22,33.3,32.9c1.3,1.2,2.7,2.6,1.5,4.7C243.4,408.2,238.7,411.3,233.6,413.9z"/>
		<path class="st10" d="M345.1,266.8c-4.9,1.9-9.8,4-14.9,5.1c-10.8-10.4-21.3-21.2-31.9-31.8c-3.9-3.9-7.6-8.2-12.6-10.8
			c-0.2-4.9,0.4-9.8,1.7-14.5c1.4-3.7,3.7-4,6.4-1.4c10,9.6,19.5,19.8,29.6,29.2c2,1.9,0.4,4.5,2,6.3c1.6-0.4,3.2-0.8,4.7-1.2
			c4.5,4.2,8.8,8.7,13,13.2C344.6,262.4,346.6,264.1,345.1,266.8z"/>
		<path class="st11" d="M256.5,145.4c0-8.6,0-17.1,0-26.4c12.9,7.7,25.4,15.3,37.9,22.8c1.9,0.2,3.4,1,4.8,2.4
			c10.4,10.4,20.8,20.7,31.1,31.2c-0.2,5.6,0.2,11.3-1.1,16.9c-2.1,1.4-3.4-0.3-4.6-1.5c-10.7-10.5-21.1-21.2-31.9-31.6
			c-0.3-0.8-0.6-1.6-0.5-2.4c1.6-8.3-2.8-12.6-9.7-15.8c-7.3-3.4-13.6-8.5-20.8-12.1c-1.8,2.4-0.6,5-0.9,7.5
			c-0.4,3.4,0.7,6.9-1,10.1C258.3,147.5,257.4,146.7,256.5,145.4z"/>
		<path class="st12" d="M247.7,404.3c-0.3-0.8-0.3-1.8-0.8-2.3c-11.7-11.6-22.9-23.8-35.3-34.8c3.7-4.7,8.3-8.3,13.9-10.4
			c3.6,1.9,5.9,5.2,8.7,7.9c7.8,7.6,15.4,15.3,23.1,23.1c1.4,1.4,3.6,2.6,3.2,5.2C256.9,397.6,252.5,401.2,247.7,404.3z"/>
		<path class="st13" d="M175.9,380.1c0.9,2.4,2.6,4.2,4.3,5.9c10.9,10.8,21.7,21.7,32.5,32.6c1.1,1.1,3.4,2,2,4.4
			c-3.8,2-7.8,3.1-12,3.8c-12.8-12.9-25.5-25.8-38.4-38.7c-3-3-6.1-6-8.4-9.7c0.4-0.3,0.7-0.8,1.2-0.7
			C163.5,378.7,169.9,377.9,175.9,380.1z"/>
		<path class="st14" d="M260.5,393c-10.4-10.5-20.8-21-31.2-31.6c-1.4-1.4-3-2.5-3.8-4.5c2-4.9,6.2-7.9,10.3-10.9
			c1.6,0,2.7,1.1,3.7,2.2c10.1,10.1,20.2,20.2,30.3,30.3c0.8,0.8,1.6,1.7,1.9,2.8C268.5,385.7,265.1,389.9,260.5,393z"/>
		<path class="st15" d="M286.5,230c2-1.6,3.3-0.1,4.6,1.2c12,12,24,24.1,36.1,36.1c1.3,1.3,2.2,2.9,3,4.5c-0.1,0.1-0.3,0.2-0.4,0.2
			c-6,1.3-10,4.4-10.4,11c-1.9-4.4-5.4-7.4-8.7-10.6c-5.7-5.7-11.6-11.3-17.1-17.2c-3.3-3.5-7.2-6.1-10.8-9.2
			c-0.1-4.2,1.1-8.2,1.6-12.3C284.5,232.2,285,230.8,286.5,230z"/>
		<path class="st16" d="M328.2,208.1c0,7.8-0.6,15.5-1.9,23.1c-1.6-3.5-4.1-6.2-6.9-8.9c-6.7-6.4-13.1-13.1-19.7-19.6
			c-3-3-5.8-6.5-10.2-7.6c0.2-6.4-0.3-12.9,1.8-19.1c3-2.6,4.9,0,6.6,1.7C308.1,187.8,318.3,197.8,328.2,208.1z"/>
		<path class="st17" d="M290.5,196.2c1.5-2.2,3.1-1.2,4.4,0.1c10.1,9.9,20.2,19.9,30.3,29.8c1.6,1.5,0.7,3.4,1.1,5.1
			c0.5,5.9-1.6,11.7-0.9,17.6c-0.9-4.2-4.3-6.6-7.1-9.4c-8.4-8.4-16.8-16.8-25.2-25.2c-1.5-1.5-2.9-3-4.5-0.2
			C286.7,207.9,287.2,201.9,290.5,196.2z"/>
		<path class="st18" d="M328.4,107.7c-4.2,3-8.5,5.6-13.2,7.8c-3.3-1.1-5.1-4-7.4-6.2c-4.8-4.7-9.5-9.4-14.2-14.1
			c-1.3-3.1,0.5-6.7-1.5-9.8c-8.9-6-18.5-10.9-27.7-16.6c-2.9-1.8-3.5-0.9-3.8,2.2c-0.2,2.3,1.7,5.6-2.3,6.7
			c-0.4-5.5-0.7-11,0.2-16.5c5.6-3.9,11.5-7.3,17.6-10.4c0.9-0.5,1.3,0,1.7,0.7c0.1,2.4-1.9,2.8-3.4,3.7c-2.1,1.3-4.2,2.7-6.4,3.8
			c-2.7,1.4-3.6,2.7-0.3,4.6c7.9,4.5,15.7,9,23.4,13.8c2.7,1.7,5.4,1.1,8.1,1.1C308.9,88.3,318.8,97.9,328.4,107.7z"/>
		<path class="st19" d="M283.7,246.9c2.8-1,4.3,1.2,5.8,2.7c9.3,9.1,18.5,18.5,27.8,27.6c1.7,1.7,2.1,3.6,2.1,5.8
			c-0.3,4.5-1.3,8.7-3,12.9c-1.4,0-2.6-0.7-3.5-1.6c-11.1-11-22.4-21.8-33.1-33.2C280.4,256.2,280,251,283.7,246.9z"/>
		<path class="st20" d="M271.8,381.4c-8.2-6.7-15.1-14.8-22.7-22.1c-4.4-4.2-8.7-8.6-13.1-12.9c0.4-3.5,5.5-9.6,9.5-11.3
			c2.1,0.7,3.4,2.5,4.9,4c8.9,8.8,17.7,17.6,26.5,26.6c1.5,1.5,3.9,2.9,2.5,5.8C277.4,375.2,274.8,378.5,271.8,381.4z"/>
		<path class="st21" d="M312.3,309.6c-1.4,5.3-3.1,10.5-5.8,15.2c-1-0.3-1.8-0.8-2.5-1.5c-11-11-22-21.8-32.8-32.9
			c0.4-5,2.5-9.4,4.9-13.8c2.1-1.4,3.8-0.5,5.3,0.9c10.4,10.1,20.5,20.5,30.9,30.6C312.5,308.6,312.5,309.2,312.3,309.6z"/>
		<path class="st22" d="M271.6,290.7c1.3,0,2.1,0.8,3,1.6c10.3,10.3,20.6,20.6,30.8,30.9c0.5,0.5,0.7,1.1,1,1.7
			c-1.9,4.3-3.1,8.9-5.9,12.7c-2,0.8-3.1-0.9-4.2-1.9c-10.5-10.4-20.9-20.8-31.3-31.2C266.1,299.3,267,294.1,271.6,290.7z"/>
		<path class="st23" d="M328.4,107.7c-1.4,0-2.4-0.8-3.4-1.8c-8.1-8.1-16.3-16.2-24.3-24.4c-0.6-0.6-0.9-1.7-1.3-2.5
			c4.4-5.2,9.9-8.4,16.5-9.9c6.3,3.9,10.6,10,16,14.8c0.6,0.5,0.9,1.4,0.8,2.3c-0.3,6.4,0.6,12.9-0.5,19.3
			C330.9,106.2,329.7,107,328.4,107.7z"/>
		<path class="st24" d="M312.3,309.6c-10.1-9.9-20.2-19.9-30.3-29.8c-1.5-1.5-2.8-3.4-5.3-3c-1-5.6,0.5-10.5,4-14.9
			c2.3,0.2,3.3,2.1,4.7,3.4c10.4,10.2,20.7,20.4,31.1,30.6C315,300.5,314.7,305.4,312.3,309.6z"/>
		<path class="st25" d="M294.6,348.5c-2.2,4.7-4.9,9-8.1,13c-11.8-11.6-23.3-23.4-35.1-35c1.3-4.5,3.6-8.3,7.1-11.4
			c2.1-0.6,3.5,0.7,4.7,1.9C273.7,327.5,284.2,338,294.6,348.5z"/>
		<path class="st26" d="M294.6,348.5c-2.3,0-3.4-1.8-4.8-3.2c-8.9-8.9-17.8-17.8-26.7-26.6c-1.3-1.2-2.2-3-4.3-3.1
			c0.6-4.6,2.2-8.6,6.3-11.1c2.4,0.1,3.7,2,5.2,3.4c10.2,9.8,19.6,20.4,30.3,29.6C299.1,341.5,297,345.1,294.6,348.5z"/>
		<path class="st27" d="M328.2,208.1c-2.3,0-3.4-1.9-4.7-3.3c-8.5-8.5-17.1-17-25.5-25.5c-1.6-1.7-3.3-3.2-5.5-4
			c-2.3-5.5-2.6-10.8,1-15.9c2.2,0.8,3.9,2.4,5.6,4c8.5,8.6,17,17.1,25.6,25.6c1.4,1.4,2.5,3.2,4.8,3.2
			C329.3,197.5,329.4,202.9,328.2,208.1z"/>
		<path class="st28" d="M330.4,175.3c-2.3,0-3.4-1.8-4.8-3.2c-8.9-8.8-17.7-17.7-26.6-26.5c-1.4-1.4-3-2.5-4.5-3.8
			c5.3-1.1,8.7-5.7,13.7-7.4c2.2-0.6,3.3,1.1,4.5,2.3c6.2,6.2,12.5,12.3,18.6,18.6C331.3,162.1,331.5,168.7,330.4,175.3z"/>
		<path class="st8" d="M114.9,320.4c4.8-4.2,10.1-7.4,15.9-9.9c2.2-0.5,3.4,1,4.6,2.3c5,4.9,9.9,9.8,14.7,14.7
			c1.6,1.7,3.3,3.4,2.7,6c-3.7,4.4-8.2,7.9-12.6,11.5c-1.5,0-2.5-0.8-3.4-1.7c-7.1-7-14.2-14-21.1-21.1
			C115.3,321.7,115,321.1,114.9,320.4z"/>
		<path class="st29" d="M379,167.3c12.6,2.9,25.4,5.2,37.4,10.1c8.2,3.3,16,7.4,21.9,14.2c5.7,6.5,9.5,13.6,5.5,22.5
			c-2.1,1.3-3.4-0.2-4.6-1.4c-2.9-2.8-5.9-5.5-8.5-8.6c0.3-5.7-3-9.6-7-13c-11.1-9.5-24.8-14-38.2-18.8c-2.2-0.8-4.3-1.5-6.5-2.2
			C378.1,169.2,378.1,168.2,379,167.3z"/>
		<path class="st30" d="M251.7,326.5c1.5,0,2.4,1,3.3,1.9c9.8,9.8,19.5,19.5,29.3,29.3c1.1,1.1,2.1,2.1,2.1,3.7
			c-1.9,3.6-4.2,6.9-6.9,10c0-2.3-1.9-3.4-3.2-4.8c-9.1-9.1-18.2-18.2-27.3-27.4c-1.3-1.3-2.3-2.7-3.5-4.1
			C245.5,330.8,248.2,328.4,251.7,326.5z"/>
		<path class="st9" d="M152.1,333.4c0-1.2,0-2.4-0.9-3.2c-6.8-6.5-12.9-13.8-20.3-19.7c5.3-3.4,11-5.9,16.8-8
			c0.7-0.3,1.3-0.1,1.8,0.3c6.1,6.3,12.5,12.4,18.6,18.8c0.8,0.8,1.4,1.8,1.2,3.1C164,328.6,158.7,332.2,152.1,333.4z"/>
		<path class="st13" d="M114.9,320.4c7.4,5.9,13.4,13.2,20.3,19.6c1.7,1.6,3,3.6,5.2,4.5c-0.3,5.4-1.3,10.8-3.4,15.8
			c-10.7-10.3-21.3-20.6-32-31C107.9,325.9,110.9,322.6,114.9,320.4z"/>
		<path class="st12" d="M169,324.5c-7.1-7.3-14.2-14.7-21.3-22c5.4-3.1,11.3-5.1,17.2-7c7.4,5.3,13.3,12.2,19.4,18.8
			c0.9,1,1.3,2.3,0.8,3.7C180.3,321.6,175.3,324.7,169,324.5z"/>
		<path class="st14" d="M184.9,317.5c-3.1-5.9-8.8-9.6-13.1-14.5c-2.2-2.6-5.2-4.5-6.9-7.6c5.1-2.5,10.5-4.3,16-5.8
			c6,5.6,11.7,11.6,17.5,17.4c1.9,1.9,3.1,4,0.4,6.3c-2.9,1.6-5.8,3-8.9,4.1C188.3,318.1,186.6,319.2,184.9,317.5z"/>
		<path class="st26" d="M221.5,276.7c4.5-2,9.3-3,14-4.1c6.4,5.2,12.9,10.1,16.7,17.7c-0.7,9.2-4.5,17.4-8.4,25.5
			c-1.3,0.7-2.5,0.3-3.4-0.7c-1.7-4.6,2.1-8,2.6-12.1c0.2-1.8,1.9-3.9-1.3-4.7C234.5,291.5,226.5,285.5,221.5,276.7z"/>
		<path class="st20" d="M198.8,312.5c1.5-2,0.2-3.2-1.2-4.6c-4.7-4.6-9.3-9.2-13.9-13.9c-1.2-1.3-2.9-2.3-2.9-4.4
			c3.7-2,7.8-3,11.8-4c1.8-0.9,3.2,0.1,4.4,1.2c5.4,5.2,10.7,10.4,15.8,15.8c1.7,1.8,2.1,3.7,0,5.6
			C208.3,310.2,204.4,313.9,198.8,312.5z"/>
		<path class="st31" d="M221.5,276.7c6.7,7,13.4,14,20.1,21.1c0,2.3-2,2.4-3.4,2.8c-3.3,0.8-6.5,2.4-10,2.6
			c-7.7-5.3-13.6-12.4-19.9-19.1c-0.8-0.8-1.2-2-0.6-3.2C212.2,278.9,216.8,277.5,221.5,276.7z"/>
		<path class="st32" d="M207.8,280.8c2.9,5.9,8.5,9.4,12.8,14.2c2.3,2.6,4.8,5,7.1,7.5c-4.3,3.8-9,6.1-14.9,5c0.5-1,1.3-2,0.1-3.1
			c-6.3-6.1-12.5-12.3-18.8-18.4c-0.3-0.3-0.9-0.2-1.4-0.3C197.6,283.5,202.6,281.9,207.8,280.8z"/>
		<path class="st17" d="M345.1,266.8c-0.5-3.8-3.7-5.7-5.9-8.3c-3-3.6-7.7-5.8-9.1-10.8c4.1-1.7,8.4-3,12.9-3.8
			c1.6-0.9,2.9-0.1,4,0.9c4.6,4.3,9.2,8.8,13.5,13.5c0.6,0.7,1.2,1.6,0.6,2.6C355.9,263.4,350.6,265.4,345.1,266.8z"/>
		<path class="st16" d="M361,260.9c-5.7-6-10.7-12.8-18.1-17c5.5-2.2,11.2-3.9,17-5.1c5.8,4.9,12.5,9.1,15,17
			C370.6,258.3,366,260,361,260.9z"/>
		<path class="st33" d="M331.3,155.4c-2.3,0-3.4-1.9-4.8-3.2c-6.2-5.8-11.7-12.4-18.4-17.8c3-2.3,6.2-4.5,9.7-6
			c1.1-0.5,2.2-0.5,3.3,0.1c0.9,0.5,1.5,1.3,2.3,1.8c9.5,5.9,8.9,15.1,7.7,24.4C331.5,154.9,331.5,155.2,331.3,155.4z"/>
		<path class="st34" d="M251.6,289.8c-4.7-6.4-11.4-10.8-16-17.3c3.1-1,6.1-2.3,9.3-2.8c5.4-0.8,7.9-3.6,7.8-8.9
			c1-2.3-0.2-4.9,0.8-7.2c0.1-1.2,0.1-2.5,0.1-3.7c1-0.8,2.1-0.9,3.2-0.1c1.3,1.8,1,3.8,1.1,5.8c0,1.4-0.1,2.8-0.4,4.2
			c-0.7,2.1-0.6,4.3-0.5,6.5c0.3,6.8-1.1,13.4-2.8,19.9C253.8,287.6,253.8,289.6,251.6,289.8z"/>
		<path class="st35" d="M332.2,105.4c-0.1-6.6,1.6-13.9-0.8-19.5c-2.3-5.4-8.6-9.2-13.2-13.7c-0.9-0.9-2-1.7-3-2.5
			c1.1-3.6,4.7-4.3,7.3-5.8c2.5-1.4,3-3.1,2.3-5.5c0.4-0.7,0.8-1.2,1.7-0.7c4.9,1.4,6.9,4.3,6.7,9.8c-0.5,11.1-0.1,22.2-0.2,33.3
			C333,102.3,333.8,104.1,332.2,105.4z"/>
		<path class="st36" d="M294.5,95.7c3.5,0.8,5.1,3.9,7.4,6.1c4.6,4.4,8.9,9.1,13.4,13.7c-3.1,2.8-7.3,3.9-10.6,6.2
			c-5.8-1.2-11.7-7.6-11.5-13.2C293.2,104.3,291.7,99.7,294.5,95.7z"/>
		<path class="st33" d="M400.8,225.1c4-2.6,8.6-4,13-5.9c4.9,3.7,10.5,6.8,11.9,13.6c-3.4,2.6-7,4.6-11,6.2
			c-0.2,0.3-0.6,0.6-0.8,0.4C408.8,235.3,403.3,231.6,400.8,225.1z"/>
		<path class="st37" d="M425.6,232.8c-2.7-5.6-8.4-8.6-11.9-13.6c3.7-2.3,7.4-4.7,11.1-7c5.6,2.4,9.8,6.2,11.9,12.1
			C433.6,227.9,429.8,230.5,425.6,232.8z"/>
		<path class="st38" d="M374.9,255.8c-3.8-6.7-10.6-10.8-15-17c3.5-1.7,7.3-2.7,11.1-3.6c3.6,2.4,6.1,6,9.2,8.9
			c2.5,2.4,5,4.7,7.8,6.8C383.8,253,379.6,255,374.9,255.8z"/>
		<path class="st39" d="M400.8,225.1c4.3,4.9,8.7,9.7,13.8,13.9c-3.6,2.6-7.7,4.2-11.9,5.8c-5.4-4.7-10.2-9.9-15.3-14.9
			C391.8,227.9,396.2,226,400.8,225.1z"/>
		<path class="st40" d="M387.5,229.9c6.4,3.6,11.2,8.9,15.3,14.9c-3,1.3-6,2.6-9,3.9c-5.3-5-11.1-9.6-15.2-15.8
			C381.5,231.4,384.4,230.4,387.5,229.9z"/>
		<path class="st11" d="M378.7,232.9c5.5,4.9,11.3,9.5,15.2,15.8c-2,0.8-3.9,1.5-5.9,2.3c-1.2,0-2.4,0.1-3.3-0.8
			c-4.6-4.9-10.3-8.9-13.7-14.9C373.6,234.4,376.1,233.6,378.7,232.9z"/>
		<path class="st41" d="M331.3,154.7c0-2.5,0-5-0.1-7.4c-0.2-2.8,1.3-6.4-0.7-8.1c-4.2-3.6-7-8.9-12.6-10.8c4.6-3,9.3-6.1,14.8-9.7
			C331.9,131.4,333,143.1,331.3,154.7z"/>
		<path class="st42" d="M294.5,95.7c0,2.1,0.3,4.3-0.2,6.4c-1.9,9.4,3.4,14.9,10.3,19.6c-2.5,1.6-4.8,3.5-7.5,4.7
			c-4.2,1.9-6.6-2.3-9.8-3.7c-0.4-0.6-0.3-1.1,0.2-1.5c3.6-0.2,4.5-2.2,4.4-5.6c-0.2-8.5-0.1-17.1,0-25.7c0-2.1-0.3-4.3,1.2-6.2
			C295.8,87.6,293.6,91.8,294.5,95.7z"/>
		<path class="st43" d="M256.4,163c0-0.9,0-1.8,0-2.7c1.1-0.8,2.3-0.9,3.4,0c1.5,2.2,0.8,4.9,1.2,7.3c-0.3,11.2,0.7,22.4-0.5,33.6
			c-1.3,2.3-2.7,3.6-4.9,0.9c0-2.3,0.1-4.7,0.1-7c0.8-8.7,0.1-17.5,0.4-26.2C256.1,167,255.7,165,256.4,163z"/>
		<path class="st44" d="M326.5,57.7c-0.4,0.4-0.9,0.7-1.3,1.1c-2.4,0.9-4.1-0.8-5.9-1.8c-6.4-3.5-12.6-7.2-18.7-11.1
			c-3.7-2.4-7-2.4-10.5,0.1c-2.4,1.7-5.1,3.1-7.6,4.6c-1.5,0.9-3,2.2-5,1.2c-0.4-0.4-0.9-0.7-1.3-1.1c5.7-3.5,11.5-6.9,17.2-10.5
			c1.4-0.9,2.6-0.9,4,0C307.1,46.1,316.8,51.9,326.5,57.7z"/>
		<path class="st45" d="M256.5,249.9c-1,0-1.9,0-2.9,0c0.6-12.1,1.2-24.1,1.8-36.2c2.4,2.3,1.4,5.2,1.6,8c0.1,2.3-0.1,4.6,2.1,6.2
			c2.2,6.8,0.1,13.5-0.6,20.2C258.1,249.1,257.5,249.7,256.5,249.9z"/>
		<path class="st46" d="M258.5,61.1c0.5,5.5-1.1,11.2,0.9,16.6c1.7,1.5,1.4,3.6,1.5,5.6c0.1,4.3,0.3,8.6,0,12.9
			c-0.4,4.9,1.2,8.3,5.8,10.4c1.7,0.8,3.7,1.6,4.2,3.9c-0.2,1-0.6,1.6-1.7,1.3c-0.3-0.1-0.6-0.2-0.9-0.3c-8.2-3-11.8-8.3-10.8-17.5
			c1-9.3,0.2-18.8,0.3-28.2C257.8,64.2,257,62.5,258.5,61.1z"/>
		<path class="st47" d="M258.4,228c-2.5,0.2-2.9-1.3-2.9-3.4c0-3.6-0.1-7.2-0.1-10.8c0.1-3.9,0.1-7.7,0.2-11.6c1.2,0.8,2.5,1,3.7,0
			c1.1,0.7,1.5,1.8,1.5,3C261.3,212.9,261.2,220.6,258.4,228z"/>
		<path class="st48" d="M379,167.3c0,1,0,1.9,0,2.9c-6.6-1.6-13.2-3.3-19.8-4.9c-0.2-1,0.1-1.4,1.1-1.1
			C366.5,164.8,372.8,165.6,379,167.3z"/>
		<path class="st49" d="M269.2,111.8c0.4-0.4,0.9-0.8,1.3-1.1c6.9,1,12.1,5.1,17.3,9.4c0.3,0.3,0,0.9-0.3,1.4c0,0.4-0.1,0.9-0.1,1.3
			C281.3,119.1,275.2,115.4,269.2,111.8z"/>
		<path class="st50" d="M259.4,160.4c-1,0-2,0-3,0c0-5,0.1-10,0.1-14.9c1,0.3,1.9,0.6,2.9,1C261.7,151.1,261.8,155.7,259.4,160.4z"
			/>
		<path class="st51" d="M256.4,163c0,9.6,0.1,19.3,0.1,28.9c0,1.1,0.1,2.3-0.8,3.2C255.8,184.4,255.3,173.7,256.4,163z"/>
		<path class="st52" d="M360.2,164.1c-0.4,0.4-0.7,0.7-1.1,1.1c-1.7,0.3-3.1-0.5-5-1.4C356.6,163.1,358.4,163,360.2,164.1z"/>
		<path class="st53" d="M253.5,253.6c-0.2,2.4,0.9,5-0.8,7.2C252.7,258.4,252.4,256,253.5,253.6z"/>
		<path class="st54" d="M212.8,307.5c5-1.7,9.9-3.4,14.9-5c4.7-1.4,9.5-2.6,13.9-4.7c1.2-0.2,2.4-0.3,3.9-0.5
			c-0.9,6.2-3.5,11.6-5.3,17.2c0.6,1.5-0.2,2.8-0.7,4.1c-4.6,9.8-9.8,19.3-16.1,28.1c-2.7,2.8-4.2,6.8-8,8.6
			c-6.7,6.9-13.8,13.5-21.8,18.9c-5.6,2.8-11.5,4.8-17.6,6c-6.7,0.3-13.3-0.1-19.9-1.7c-8.9-3.4-16.5-8.1-19-18.1
			c-0.2-5.6,1-10.8,3.4-15.8c3.2-4.4,7.4-7.8,11.6-11.2c5.6-3,11.3-5.9,16.9-8.9c5.4-2,10.9-4,15.9-7c5-0.6,9.2-3.4,13.9-5
			C203.5,310.8,208.1,309.2,212.8,307.5z"/>
		<path class="st54" d="M258.4,228c0.5-8.6,1.3-17.2,0.9-25.9c0.4-11.5,0.7-23,0.3-34.5c0.9-12.2,0.1-24.5,0.5-36.7
			c0-1.6-1.1-3.7,1.3-4.8c8.6,6.4,17.8,11.9,27.3,16.9c3.8,2,5.3,4.2,4.7,8.4c-0.4,2.6-0.1,5.3-0.1,7.9c-0.9,5.3-1.1,10.6-1,15.9
			c-1.2,6.9-1.3,13.9-1.8,20.9c-0.6,6-1.3,11.9-1.9,17.9c-0.7,5.3-1.4,10.6-2.1,15.9c-1,5.6-1.9,11.3-2.9,16.9c-1,5-2,9.9-3.1,14.9
			c-1.3,5-2.6,10-4,14.9c-1.7,4.6-3.3,9.3-5,13.9c-2.2,4.6-4.4,9.2-6.6,13.8c-2.1,3.7-4.2,7.4-6.3,11.1c-2.4,3.6-4.7,7.3-7.1,10.9
			c-2.1,2.9-4.2,5.8-6.2,8.6c-3.2,3.8-6.3,7.5-9.5,11.3c-3.5,3.5-6.9,7-10.4,10.5c-4.7,3.4-9.3,6.8-14,10.3c-2-0.2-2.1-1.1-0.8-2.4
			c2.4-2.4,4.7-4.8,7.1-7.2c1.1-4.5,4.6-7.4,7.2-10.9c7.1-8,11.1-17.8,15.6-27.3c0.8-1.4,1.4-2.9,2.9-3.8c2.6-8.6,6.6-16.8,8-25.8
			c2.6-7.7,4.1-15.5,4.1-23.6c0.9-2-0.2-4.3,0.8-6.3c0.1-1.3,0.1-2.5,0.2-3.8c1-2.3-0.1-4.8,0.7-7.2C257.8,242,258.7,235,258.4,228z
			"/>
		<path class="st55" d="M226,347.5c-2.7,3.4-5.4,6.7-8.1,10.1c-0.5-1.2-1.3-2-2.5-2.4c2.1-3.1,4.2-6.3,7-8.9
			C224,345.5,225.2,345.9,226,347.5z"/>
		<path class="st51" d="M261.4,126.2c-1.8,1.6-0.9,3.7-1,5.6c-0.4,12,0.5,24-0.8,35.9c-0.1-2.4-0.2-4.8-0.2-7.3c0-4.7,0-9.3,0-14
			c0-5.7,0-11.4,0.1-17.1C259.6,128.2,258.4,125.8,261.4,126.2z"/>
		<path class="st54" d="M287.5,121.4c-4.7-5.1-11.2-7.4-17-10.7c-0.1-0.1-0.2-0.3-0.3-0.4c-9.7-3.2-11.9-10.2-10.6-19.6
			c0.6-4.2,0-8.6-0.1-12.9c0-4.1,0-8.2,0-13.2c11.6,6.7,22.6,13,33.7,19.3c1,12.4,0.2,24.9,0.4,37.4c0,1.9-0.4,3-2.6,1.5
			C290,122,288.7,121.8,287.5,121.4z"/>
		<path class="st54" d="M277.4,51.9c4.9-2.8,9.8-5.4,14.6-8.3c2.4-1.5,4.2-1.5,6.7,0c8.8,5.3,17.7,10.3,26.5,15.3
			c1,0.8,2,1.6,3.2,2.6c-4.6,2.9-8.9,5.6-13.3,8.4c-5.5,2.7-10.7,5.9-15.8,9.2c-2.7,1.9-5.1,1.6-8-0.2c-9.5-5.9-19.2-11.4-29.4-17.4
			C267.5,58,272.4,55,277.4,51.9z"/>
		<path class="st56" d="M243.6,315.6c-0.6,1.4-1.2,2.8-1.8,4.3c-1.3-0.3-2.6-0.7-2.9-2.2c0.5-1.1,0.9-2.1,1.4-3.2
			C241.3,314.8,242.4,315.2,243.6,315.6z"/>
		<path class="st53" d="M257.4,249c0,2.4,0.4,4.9-0.7,7.2c0-2.1-0.1-4.1-0.1-6.2C256.8,249.6,257.1,249.3,257.4,249z"/>
		<path class="st53" d="M256.5,259.9c0,2.1,0.4,4.3-0.8,6.3C255.8,264.1,254.8,261.8,256.5,259.9z"/>
		<path class="st57" d="M238.8,317.6c1,0.7,2.4,0.9,2.9,2.2c-2.8,5.7-5.3,11.4-8.3,16.9c-2.1,3.8-4.9,7.2-7.4,10.8
			c-1.2-0.4-2.4-0.8-3.6-1.2C228.5,337.1,233.7,327.4,238.8,317.6z"/>
	</g>
</g>
<g id="eos_lynx" class="st0">
	<g class="st1">
		<path class="st58" d="M305,137.5c11.1-13,22.1-25.9,33.2-38.8c5.1-5.9,9.4-12.5,16.2-16.6c2.1,0,4.2,0,6.3,0c4.7,2.7,6.9,6.8,8,12
			c8,37.7,16.2,75.3,24.4,113c-2.2-0.3-3.8-1.5-5.4-2.9c-5.2-4.9-10.4-9.8-15.6-14.5c-1.1-1-2.3-3.9-4.4-0.8
			c-4-17.4-8-34.7-12.3-53.6c-3.8,11.3-7.1,21.1-10.4,30.9c-6.5-4.1-11.9-9.4-17-15.1c0.6-2.5,1.2-5,1.8-7.5c0-0.4,0.1-0.8,0.1-1.2
			c-0.4,0.1-0.7,0.3-1.1,0.4c-2.7,2.9-5.5,5.8-8.2,8.7C314.7,147.5,309.6,142.8,305,137.5z"/>
		<path class="st59" d="M82.4,323.6c3.6-8.2,4-17.1,6.3-25.6c0.6-2.3,1.3-4.6,1.9-7c3.2,0.2,4.5,3,6.5,4.8c3.6,3.4,6.8,7.3,11.8,8.9
			c-0.9,4.6-1.4,9.3-2.7,13.8c-1,3.5-0.1,5.3,2.9,7.1c12.6,7.8,25.1,15.8,37.6,23.8c-0.1,1.1,0.1,2.1,0.9,2.9
			c7.8,7.7,15.4,15.6,23.5,23c11.6,10.6,22.7,21.7,34,32.5c1.1,1.1,1.4,2.4,1.3,3.8c-21.6-13.5-43.3-26.9-64.9-40.4
			c-16.2-10.1-32.3-20.3-48.4-30.3c-4-2.5-7.8-5-10.6-8.9C82.4,329.2,82.4,326.4,82.4,323.6z"/>
		<path class="st60" d="M133,96.7c0.3-6.3,2.7-11.4,8.3-14.7c2.5,0,4.9,0,7.4,0c14.2,14.2,26.5,30,39.7,45.1
			c20.1,23,40,46.3,59.9,69.5c2.1,2.5,3.4,2.8,5.4,0c1.7-2.4,3.9-4.4,5.9-6.6c2.4,0.1,3.6,1.8,5.1,3.3c3.5,3.6,7.4,6.7,11.5,9.6
			c-4.3,5-8.6,9.9-12.9,14.9c-1.2-1.5-2.3-3.1-3.7-4.4c-18.5-17.5-37-34.8-55.4-52.4c-12.6-12-24.9-24.4-37.6-36.4
			c-9.3-8.9-18.9-17.5-28.3-26.3C136.6,96.9,134.9,96.6,133,96.7z"/>
		<path class="st61" d="M304,406.5c-11.8,7.4-23.2,15.5-35.5,22.2c-9.9-11.5-21.7-21-32.5-31.6c-1.8-1.8-3.7-4.3-7-4.1
			c-7.3-23.1-14.7-46.2-22-69.3c2.9,0,4.8,1.9,6.7,3.6c5,4.8,9.8,9.8,14.8,14.7c2.2,2.1,4.4,4.4,7.8,4.5
			c4.8,14.9,9.6,29.7,14.7,45.3c2.3-6.8,4.4-12.9,6.5-19c2.5-0.2,4.2,1.2,5.8,2.9c3.8,3.8,7.7,7.5,11.5,11.2
			c-0.2,5-3.9,9.2-3.3,14.4c-0.3-0.4-0.6-0.4-0.7,0.1c0,0.1,0,0.3,0.1,0.5c0.2-0.2,0.4-0.4,0.6-0.6c6.7-2.8,12.2-7.8,18.7-11
			c1.2,2.8,3.9,4.3,5.7,6.5C298.5,400.1,302.7,402.1,304,406.5z"/>
		<path class="st62" d="M229,393c3.2-0.2,5.2,2.3,7,4.1c10.8,10.6,22.6,20.1,32.5,31.6c-0.2,0.3-0.4,0.6-0.7,0.8
			c-18,11.3-15.3,11.6-32.8,0.5c-9.6-6.1-19.1-12.2-28.7-18.3c0.1-1.4-0.2-2.7-1.3-3.8c-11.3-10.9-22.4-21.9-34-32.5
			c-8.1-7.4-15.7-15.3-23.5-23c-0.8-0.8-1-1.8-0.9-2.9c1.5,0.8,3.1,1.6,4.5,2.5c22,13.8,43.9,27.6,66,41.3c4.4,2.7,8.5,6,13.4,8
			c0.2,0.2,0.4,0.4,0.6,0.6c0-0.2,0.1-0.3,0.1-0.5c-0.2,0-0.5-0.1-0.7-0.1C231.6,398.3,229,395.9,229,393z"/>
		<path class="st63" d="M404.7,259.5c4.2,18.2,8.5,36.3,11.8,54.6c-2-0.2-3.7-1.1-5.1-2.5c-5.1-5-10.1-10-15.1-15.1
			c-1.6-1.6-3.2-2.7-5.5-2.3c-3.9-17.8-7.8-35.6-11.7-53.4c2.3-0.5,4,0.4,5.6,2c2.1,2.3,4.1,4.9,6.7,6.6
			C395.9,252.5,398.6,258.2,404.7,259.5z"/>
		<path class="st64" d="M404.7,259.5c-6-1.3-8.7-7-13.4-10.1c-2.6-1.7-4.6-4.3-6.7-6.6c-1.6-1.7-3.3-2.6-5.6-2
			c-3.7-17.4-7.5-34.7-11.2-52.1c2.1-3.1,3.2-0.2,4.4,0.8c5.3,4.8,10.5,9.7,15.6,14.5c1.6,1.5,3.2,2.6,5.4,2.9
			C397,224.5,400.8,242,404.7,259.5z"/>
		<path class="st60" d="M390.7,294.2c2.3-0.3,4,0.7,5.5,2.3c5,5.1,10.1,10.1,15.1,15.1c1.4,1.4,3.1,2.3,5.1,2.5
			c1,4.2,2.3,8.4,3,12.7c0.7,4.6-1.4,8.2-5.2,10.7c-5.1,3.3-10.4,6.4-15.6,9.6c-3.6-6.5-8.7-11.5-15.1-15.2c3-2,5.9-4.3,9.1-6
			s4.2-3.6,3.2-7.4C393.8,310.4,392.4,302.3,390.7,294.2z"/>
		<path class="st65" d="M304,406.5c-1.3-4.4-5.5-6.3-8.1-9.6c-1.8-2.2-4.5-3.7-5.7-6.5c11.6-7.2,23.2-14.5,34.8-21.7
			c1.4,2.7,4,4.3,5.9,6.6c2.6,3.2,6.7,5.1,7.8,9.5C327.4,392.3,315.8,399.6,304,406.5z"/>
		<path class="st66" d="M338.7,384.6c-1.1-4.4-5.3-6.3-7.8-9.5c-1.9-2.3-4.5-3.9-5.9-6.6c9.9-6.8,20-13.1,30.4-19.1
			c0.1,2.4,1.9,3.4,3.5,4.8c3.8,3.4,8.3,6.2,10.3,11.3C358.8,371.6,349.4,379.2,338.7,384.6z"/>
		<path class="st67" d="M369.1,365.6c-1.9-5.1-6.5-7.9-10.3-11.3c-1.6-1.4-3.4-2.4-3.5-4.8c9.2-6.2,18.5-12.2,28.2-17.6
			c6.4,3.7,11.5,8.7,15.1,15.2C388.7,353.1,379.5,360.1,369.1,365.6z"/>
		<path class="st64" d="M305,137.5c4.6,5.3,9.7,10.1,15.7,13.8c-8.8,10.8-17.8,21.3-27.2,31.5c-3.6-6.3-8.9-10.9-14.9-14.7
			C287,157.5,295.9,147.4,305,137.5z"/>
		<path class="st63" d="M278.6,168.1c6.1,3.8,11.3,8.4,14.9,14.7c-5.8,6.7-11.6,13.5-17.4,20.2c-4.1-2.9-8-6-11.5-9.6
			c-1.4-1.5-2.7-3.2-5.1-3.3C265.6,182.5,271.8,175,278.6,168.1z"/>
		<path class="st67" d="M133,96.7c2-0.1,3.7,0.2,5.3,1.7c9.4,8.8,19,17.4,28.3,26.3c12.6,12,24.9,24.4,37.6,36.4
			c18.4,17.5,37,34.9,55.4,52.4c1.4,1.3,2.5,2.9,3.7,4.4c-8.4,11.8-14.6,12.1-23.9,1.2c-6.8-8-13.7-15.9-20.5-23.8
			c-15.2-17.5-30.5-35.1-45.8-52.6c-0.4-0.1-0.7-0.3-1.1-0.4c0.1,0.4,0.1,0.8,0.2,1.2c2.9,9.6,5.9,19.3,8.8,28.9
			c-3.1,0.1-5.2-2-7.2-3.8c-5.8-5.6-11.4-11.3-17.1-17c-1.4-1.4-2.9-2.6-5-2.3c-1.4-3.9-2.8-7.7-4-11.6c-0.4-1.3-0.8-1.8-2.1-1
			c-2.6,0.3-4.1-1.4-5.7-3c-4.1-3.7-7.1-8.6-12.5-10.8C128.6,114,130.5,105.3,133,96.7z"/>
		<path class="st65" d="M99.4,250.1c3.2-15.5,6.2-31,10.3-46.2c3,0.3,4.9,2.3,6.9,4.2c3.7,3.4,6.4,7.8,11.4,9.6
			c-3.4,15.4-6.7,30.7-10.1,46.1c-5.3-2.3-8.2-7.3-12.2-10.9C103.8,251.1,102.1,249.6,99.4,250.1z"/>
		<path class="st68" d="M128,217.6c-5-1.7-7.8-6.2-11.4-9.6c-2.1-1.9-3.9-3.9-6.9-4.2c2.6-12.4,5.1-24.8,7.8-37.2
			c0.4-2-0.1-4.2,1.3-5.9c3.1-0.3,4.6,2,6.6,3.7c3.9,3.4,6.5,8.5,12.3,9.2C134.5,188.3,131.3,202.9,128,217.6z"/>
		<path class="st62" d="M99.4,250.1c2.7-0.4,4.4,1.1,6.3,2.7c4.1,3.6,6.9,8.6,12.2,10.9c-2.8,13.7-5.4,27.5-9.1,41
			c-4.9-1.7-8.1-5.6-11.8-8.9c-2-1.8-3.3-4.6-6.5-4.8C92.9,277.2,96.3,263.7,99.4,250.1z"/>
		<path class="st66" d="M137.7,173.6c-5.8-0.8-8.4-5.9-12.3-9.2c-2-1.7-3.5-4-6.6-3.7c2.8-12.6,5.7-25.2,8.5-37.8
			c5.4,2.2,8.4,7.1,12.5,10.8c1.7,1.5,3.1,3.3,5.7,3C143.6,149.1,140.5,161.3,137.7,173.6z"/>
		<path class="st69" d="M383.6,331.9c-9.7,5.4-19,11.4-28.2,17.6c-10.4,6-20.5,12.3-30.4,19.1c-11.6,7.2-23.2,14.5-34.8,21.7
			c-6.5,3.2-12,8.1-18.7,11l0.1,0.1c-0.7-5.2,3.1-9.4,3.3-14.4c4-10.8,7.5-21.7,10.4-32.9c4.4-11.4,7.7-23.1,11.2-34.7
			c3.9-12.3,7.8-24.5,11.6-36.8c4.2-13.3,8.4-26.6,12.7-39.9c4.7-13.5,9.1-27.1,12.9-40.9c4.3-11.8,8.1-23.7,11.4-35.8
			c3.3-9.8,6.6-19.6,10.4-30.9c4.3,18.9,8.3,36.2,12.3,53.6c3.7,17.4,7.5,34.7,11.2,52.1c3.9,17.8,7.8,35.6,11.7,53.4
			c1.7,8.1,3.1,16.3,5.2,24.2c1,3.8,0,5.7-3.2,7.4C389.5,327.6,386.6,329.8,383.6,331.9z"/>
		<path class="st69" d="M180.9,172.3c-2.9-9.6-5.9-19.3-8.8-28.9c0.3-0.3,0.6-0.5,0.9-0.8c15.3,17.5,30.5,35,45.8,52.6
			c6.9,7.9,13.7,15.9,20.5,23.8c9.3,10.9,15.4,10.5,23.9-1.2c4.3-5,8.6-9.9,12.9-14.9c5.8-6.7,11.6-13.5,17.4-20.2
			c9.4-10.2,18.4-20.7,27.2-31.5c2.7-2.9,5.5-5.8,8.2-8.7c0.3,0.3,0.6,0.5,0.9,0.8c-0.6,2.5-1.2,5-1.8,7.5
			c-4.6,12.6-8.4,25.4-12.2,38.2c-4.6,13.6-9.2,27.1-12.9,40.9c-4.7,12.8-8.7,25.8-12.4,38.9c-4.4,12.1-8.2,24.4-11.6,36.8
			c-4.3,11.7-8,23.7-11.4,35.7c-3.3,10.5-6.6,20.9-10,31.4c-2.1,6.1-4.1,12.1-6.5,19c-5-15.5-9.8-30.4-14.7-45.3
			c-6.1-18.9-12.1-37.8-18.2-56.6c-5.2-18.3-11.2-36.4-17.2-54.5C194.3,214.4,187.6,193.3,180.9,172.3z"/>
		<path class="st64" d="M315.8,189.1c3.8-12.8,7.6-25.6,12.2-38.2c5.1,5.7,10.5,11,17,15.1c-3.3,12.1-7.1,24-11.4,35.8
			c-2.3-0.9-3.9-2.8-5.9-4.1C323.5,195.1,321.3,189.9,315.8,189.1z"/>
		<path class="st69" d="M328.9,142.6c0.4-0.1,0.7-0.3,1.1-0.4c0,0.4-0.1,0.8-0.1,1.2C329.6,143.2,329.2,142.9,328.9,142.6z"/>
		<path class="st69" d="M137.7,173.6c2.8-12.3,5.9-24.5,7.9-36.9c1.2-0.8,1.6-0.3,2.1,1c1.2,3.9,2.7,7.7,4,11.6
			c5.9,21.3,12.9,42.1,20,63c5.2,18.4,11.3,36.6,17.2,54.7c6,18.9,12.1,37.8,18.1,56.7c7.3,23.1,14.7,46.2,22,69.3
			c0,2.9,2.6,5.3,1.4,8.3l0,0c-4.9-1.9-9-5.2-13.4-8c-22-13.7-44-27.6-66-41.3c-1.5-0.9-3-1.7-4.5-2.5c-12.5-8-25-16-37.6-23.8
			c-3-1.9-3.9-3.6-2.9-7.1c1.3-4.5,1.9-9.2,2.7-13.8c3.6-13.5,6.3-27.3,9.1-41c3.4-15.4,6.7-30.7,10.1-46.1
			C131.3,202.9,134.5,188.3,137.7,173.6z"/>
		<path class="st65" d="M207,323.7c-6-18.9-12.1-37.8-18.1-56.7c2-0.3,3.2,0.9,4.5,2.1c5.3,5,10.5,10,15.9,14.8
			c2.6,2.4,5.1,5.2,8.9,5.9c6.1,18.9,12.1,37.8,18.2,56.6c-3.4-0.1-5.6-2.4-7.8-4.5c-5-4.8-9.8-9.9-14.8-14.7
			C211.8,325.6,209.9,323.7,207,323.7z"/>
		<path class="st65" d="M257.4,372.8c3.3-10.5,6.6-20.9,10-31.4c3.3-0.1,5.3,2,7.6,4c3.4,2.9,5.5,7.4,10.2,8.6
			c-2.9,11.1-6.4,22.1-10.4,32.9c-3.9-3.7-7.8-7.4-11.5-11.2C261.6,374.1,259.9,372.6,257.4,372.8z"/>
		<path class="st69" d="M271.5,401.3c-0.2,0.2-0.4,0.4-0.6,0.6c0-0.2-0.1-0.3-0.1-0.5C271,401,271.2,401,271.5,401.3
			C271.5,401.4,271.5,401.3,271.5,401.3z"/>
		<path class="st69" d="M230.5,401.4c0.2,0,0.5,0.1,0.7,0.1c0,0.2-0.1,0.3-0.1,0.5C230.9,401.7,230.7,401.5,230.5,401.4L230.5,401.4
			z"/>
		<path class="st66" d="M171.7,212.2c-7.1-20.9-14.1-41.7-20-63c2.2-0.3,3.6,0.8,5,2.3c5.7,5.7,11.3,11.4,17.1,17
			c2,1.9,4.1,3.9,7.2,3.8c6.7,21,13.3,42,20,63c-1.7,0.1-3-0.5-4.2-1.7c-5.8-5.5-11.6-10.9-17.4-16.4
			C177.1,215.1,174.8,213,171.7,212.2z"/>
		<path class="st69" d="M172.1,143.4c-0.1-0.4-0.1-0.8-0.2-1.2c0.4,0.1,0.7,0.3,1.1,0.4C172.7,142.9,172.4,143.2,172.1,143.4z"/>
		<path class="st63" d="M315.8,189.1c5.5,0.7,7.8,6,11.9,8.6c2,1.3,3.6,3.2,5.9,4.1c-3.8,13.8-8.2,27.4-12.9,40.9
			c-4.6-0.7-6.8-4.6-9.8-7.3c-2.4-2.2-4.4-5-8-5.3C306.6,216.2,311.2,202.7,315.8,189.1z"/>
		<path class="st60" d="M302.9,230.1c3.6,0.3,5.6,3.1,8,5.3c3,2.7,5.2,6.6,9.8,7.3c-4.2,13.3-8.4,26.6-12.7,39.9
			c-4.1-1.2-5.9-5-8.9-7.6c-2.7-2.3-4.7-5.6-8.7-6.1C294.2,255.9,298.2,242.8,302.9,230.1z"/>
		<path class="st66" d="M290.5,269c4,0.5,6,3.8,8.7,6.1c3,2.5,4.8,6.4,8.9,7.6c-3.9,12.3-7.8,24.5-11.6,36.8c-1.5,0-2.3-1.4-3.4-2
			c-5.4-3.1-8.3-9.2-14.2-11.6C282.2,293.3,286.1,281.1,290.5,269z"/>
		<path class="st68" d="M278.8,305.7c5.9,2.4,8.8,8.5,14.2,11.6c1.2,0.7,1.9,2,3.4,2c-3.5,11.6-6.8,23.3-11.2,34.7
			c-4.7-1.3-6.8-5.7-10.2-8.6c-2.3-2-4.3-4.1-7.6-4C270.8,329.4,274.5,317.5,278.8,305.7z"/>
		<path class="st68" d="M171.7,212.2c3.2,0.8,5.4,2.9,7.7,5c5.8,5.5,11.6,10.9,17.4,16.4c1.2,1.2,2.5,1.8,4.2,1.7
			c6.1,18.1,12,36.2,17.2,54.5c-3.8-0.8-6.2-3.5-8.9-5.9c-5.4-4.9-10.6-9.9-15.9-14.8c-1.3-1.2-2.5-2.5-4.5-2.1
			C183,248.8,176.8,230.7,171.7,212.2z"/>
	</g>
</g>
<g id="eosx" class="st0">
	<g class="st1">
		<path class="st70" d="M170.9,300.1c0-0.3,0.1-0.5,0.3-0.6c1.8-1.2,2.8-3.1,3.8-4.9c6.1-8.5,12.3-16.9,18.3-25.4
			c1.4-2,2.2-1.7,3.5,0.1c10.5,14.5,21.1,29,31.7,43.5c2,2.7,5.4,5.2,5.5,8.3c0,3.1-3.5,5.6-5.5,8.3c-15.6,21.3-31.2,42.6-46.6,63.9
			c-1.6,2.2-3.3,3-6,3c-23.5-0.1-47-0.1-70.5-0.1c-1.4,0-2.9,0-5.1,0c4.6-6.3,8.7-12,12.8-17.6c10.7-14.6,21.3-29.2,32-43.8
			c0.3-0.4,0.8-0.7,1.2-1.1c1.4-1.4,3.1-2.6,3.4-4.8l0.1-0.1c2-0.7,2.4-2.5,3.1-4.1v-0.1c1.3-0.6,2.6-0.3,3.4,0.7
			c3.3,3.9,7.7,3.7,12,3c3.2-0.5,6.1-0.6,9,1.3s6.4,1,9.6,0.8c2.3-0.1,3.2-4.4,1.6-6.5c-1.1-1.5-2.6-2.8-1.5-5.1
			c1.1-2.3,3.1-1.8,5.3-1.4c-1.5-2.6-3.2-4-5.7-4.7c-4.8-1.4-6.4-3.8-6.2-8.7c0.1-1.9,0.2-3.6-2-4.4c-2.1-0.8-2.9,0.7-4,2
			c-0.9,1-1.7,2.6-3.2,1.8C169.8,302.8,170.7,301.3,170.9,300.1z"/>
		<path class="st71" d="M354.8,340.4c6.2,7.3,11.5,15.3,17.2,23.1c-0.8,2.1-2.4,1.3-3.6,0.8c-1.7-0.8-3.1-1.5-3.6,1.1
			c-0.1,0.7-1.1,1.3-1.6,1c-3.6-2.5-8.1,0.9-11.6-1.8c-1-0.8-1.9-0.8-3-0.4c-0.8,0.3-1.6,0.4-2.4,0.2c-3.6-1.3-16.5-3.3-19.2-3
			c-0.5,0.1-1.1,0-1.6,0.2c-5,2.5-9.2,0.9-13.2-2.4c-1.7-1.3-3.1,0.6-4.6,0.4c-2-0.2-2.5,0.5-2.9,2.2c-0.2,1.2-1,2.3-1.6,3.3
			c-1.2,2-2.6,2.2-4.3,0.5c-0.6-0.5-0.9-1.4-1.8-1.6c-0.4-0.1-0.8-0.3-1.1-0.4c0,0.6,0.7,0.5,1,0.8c1.1,1.5,0.2,1.8-1.1,2
			c-4-2.9-6.1-7.3-9-11.1c-4.3-5.7-8.3-11.6-12.5-17.4c-1.4-3.1-3.3-5.9-5.3-8.7c-0.7-1.1-1.3-2.2-0.2-3.3c1-0.9,2.1-1.2,3.4-0.7
			c0.5,0.2,1,0.5,1.4,0.8c3,1.9,6.2,3.1,9.8,2.5c1-0.2,2.1-0.1,2.8,0.5c4.4,3.7,9.6,2.5,14.6,2.5c2.4,0,4.7,0.3,5.9,2.8
			c0.2,0.5,0.7,1.3,1.1,0.8c1.9-2.3,4.5-0.3,6.6-1.2c2.8-1.2,2.7,1.7,3.7,3.6c2-3.4,5-3.2,7.6-2c2.5,1.3,4.8,1.4,7.3,0.9
			c3-0.6,5.9-1.1,8.5,1.2c0.6,0.5,1.7,0.6,2.4,0.1c4-2.6,5.2-0.1,6.1,3.5c0.3-1.3,0.3-2.6,1.8-2.9
			C353.5,338.2,353.5,340.2,354.8,340.4z"/>
		<path class="st72" d="M239.9,184c5.5,6.3,10.3,13.1,14.9,20.1c0.2,2.9-1.4,3.8-3.8,2.9c-3.8-1.4-7.4,0.1-8.8,2.7
			c-3.7,7.1-9.7,6.9-16,6.4c-2.2-0.2-4.3-0.5-5.7-2.9c-1.6-2.6-4.1-3.6-6.8-0.9c-0.9,0.9-2.1,1.2-3.4,1c-1.3-0.3-2.4-0.2-2.9,1.4
			c-0.3,1-1.6,1.8-2.2,1.2c-2.2-1.9-3.4-0.7-5,0.8c-1.5,1.4-3.3,1.8-3.2-1.4c0-0.7-0.3-1.3-1.3-1.8c-0.9,3.4-3.3,3.5-5.9,2.3
			c-1.9-0.8-3.8-0.2-5.6-0.7c-7.1-9.6-14.2-19.2-21.3-28.7c1.6-2.2,3.7-2.3,5.6-0.6c2.1,1.8,4.4,2,6.8,1.3c2.5-0.6,4.8-0.5,7.1,0.5
			c4,0.9,8-0.5,11.8-0.3c4.9,0.2,9.9-3.7,14.7,0.4c0.8,0.7,1.9,0,2.5-0.8c1.3-1.6,2.7-2.8,4.9-1.6c1.9,1.1,1.6,2.8,1.1,4.5
			c1.8-3.4,6.5-4.3,8.3-1.3c1.2,2.1,1.9,1.9,4.2,1.6C234.3,189.5,236.3,185.6,239.9,184z"/>
		<path class="st73" d="M295.7,366.6c-0.1-0.6,1.7-1,0.5-1.4c-2.1-0.6-1.7-2.1-2-4c1.9,2.1,4.7,2,5.9,4.5c0.6,1.2,1.6,0.3,2-0.8
			c1-2.5,2.5-4.8,2.8-8.3c1.2,1.6,1.8,4.1,3.7,1.5c0.9-1.3,2.9-1.2,4-0.4c1.5,1.1,2,4.6,4.8,1.3c0.2-0.2,1.1,0.5,0.9,1
			c-0.9,4.1,2.9,0.1,3.2,1.9c6-3.6,12-1.6,18.1,0c2.2,0.6,4.3-0.5,6.1-1.3c1.3,0.7-1.6,3.9,1.7,2.8c2.3-0.8,3.8-1.3,5.6,0.9
			c0.8,0.9,2.9,1.8,4.1-0.5c0.9-1.8,1.7-0.4,2.5,0.2c1.6,1.2,3.4,3.8,4.6-0.5c0.1-0.4,2.2-4.1,4-0.3c0.5,1.1,2.4,0.6,3.6,0.3
			c4.4,5.9,9.1,11.6,12.9,18c-2.9,5-7.5,3.5-11.7,2.9c-1.8-0.3-3.5-0.3-5.2,0.3c-5,1.7-9.9,0.8-14.8-0.7c-0.6-0.2-1.3-0.6-1.9-0.6
			c-6.2-0.4-12.3-0.9-18.5-1c-0.7,0-1.4,0-2,0.3c-4.6,3-9.5,1-14.2,0.9c-4.2-0.1-4.5-0.3-3.8,3.9c0.1,0.8,0,1.6-0.7,2.2
			c-5.1-6.9-10.2-13.7-15.4-20.6C296.1,368.3,295.6,367.6,295.7,366.6z"/>
		<path class="st74" d="M184,215.1c2.2-2,4.5-0.7,6.6,0c2,0.6,4.1,1.5,3.1-2.1c-0.3-1.2,0.7-1.7,1.3-1.6c1.9,0.3,2,2.3,2.8,3.6
			c0.1,0.2-1.2,1.4-0.2,1.8c0.8,0.3,1.7-0.4,2.3-1.3c1.9-2.9,1.9-2.9,4.8-0.5c0.2,0.1,0.5,0.2,0.7,0.2c0.7-0.2,1-0.7,0.9-1.6
			c-0.6-2.7,0.7-2.8,2.7-1.8c1.2,0.6,2.4,1,3.7-0.2c3.7-3.3,6.6-3.2,8.7,1c1.6,3.1,3.9,2.2,5.9,2.1c1.8-0.1,3.3-0.5,5.1,0.2
			c1.9,0.7,4.9,2.4,4.3-2.2c3.7-0.8,3.5-6.8,8.3-6.3c0.8,0.1,2.2-0.4,2.5-1.1c0.7-1.4,1.3-1.5,2.3-0.4c2.2,2.6,3.6,1.5,4.8-1
			c5.8,7.2,11.3,14.6,16.4,22.4c-1.1,3.5-3.1,4.9-7.6,5.1c-6.3,0.3-12.7,0.5-18.9-0.9c-1.2-0.1-1.7,0.5-2.2,1.5
			c-0.4,0.9-1.1,1.8-2.1,1.8c-5.1-0.3-10.2,2.5-15.3,0.2c-6-2.7-11.5-0.8-16.8,2c-2.6,1.4-5,3-8,1.2
			C194.6,230.1,189.2,222.7,184,215.1z"/>
		<path class="st75" d="M354.8,340.4c-1.3,0.4-2-2-3.2-1c-1.6,1.5,1.3,2.4,0.9,4c-3.1,0.6-3.9-1.7-4.2-3.7c-0.4-2.7-1.2-2.7-2.9-1
			c-1,1-2.5,1.5-3.3,0.6c-2.8-3-6.2-1.6-9.5-1.7c-0.9,0-1.6,0-2.1,0.8c-0.8,1.2-1.5,1.1-2.6,0.1c-3.2-3-5-2.9-8.1-0.1
			c-0.6,0.6-1.8,1-2.6,0.9c-1.3-0.2-0.9-1.4-0.7-2.3c0.2-0.8,0.6-1.6-0.4-2.1c-1.7-0.8-1.3,0.7-1.6,1.4c-0.2,0.5-0.7,0.5-1,0.2
			c-2.3-2.5-3.8-1.4-5.4,0.9c-0.7,1.1-2.2,0.5-2.2-0.5c0.1-6.4-4.9-3.4-7.5-3.8c-3.5-0.5-7.3,2-10.4-1.9c-0.8-1-3.2-1.4-5.5-0.9
			c-3.4,0.7-6.8-0.8-9.5-3.2c-1.2-1-2.4-1.5-3.6-0.3c-1.2,1.3,0.7,1.7,1,2.5c1.2,3,4.2,5.2,3.9,8.8c-5.9-7.1-11-14.7-16.4-22.2
			c-0.4-0.9-0.6-1.8-0.8-2.7c-1.1-4.1-0.1-5.5,4.3-6.3c2.1,0.6,3.2,2.8,5.9,2.8c1.7,0,2.1,2.6,1.9,4.5c-0.2,2.3,0.8,2.5,2.7,1.9
			c3.1-0.9,6.4-1,7.6-5.1c0.6-2.1,2.7-1.2,4.3-0.9c3.6,2.5,8,3,12.1,3.3c5.7,0.4,11.5-0.2,17.3,1.1c2.7,0.6,6.1,0.3,9.2-0.5
			c1.4-0.4,2.2,0.9,3,1.8c2,2.5,4.2,3.3,7.1,1.5c2.2-1.4,4.1-0.8,5.7,1.3c0.6,0.8,1.2,1.9,2.3,2.2
			C345.6,326.9,350.4,333.6,354.8,340.4z"/>
		<path class="st76" d="M388.4,111c-8.2,11.7-16.4,23.3-25.3,34.4c-3.5,3.8-6.6,0.3-9.8-0.8c-3.4-1.2-3.4-4.1-2.8-7.1
			c0.7-3.5,4.4-4.6,6.1-7.4c1-1.7,3.3-3.7,1.8-5.3c-1.4-1.4-3.7-2.6-6.6-1.9c-3.4,0.8-6,3.6-9.9,3.2c-1.8-0.2-3.4-0.4-4.9-1.5
			c-1.9-1.2-2.2-3.3-3.1-5.1c-1.1-2.2-2.9-3.3-4.9-2.5c-3,1.2-6.2,2.3-8.5,4.8c-1.2,0.9-2.2,0.8-3.2-0.3c-0.9-1-0.5-2,0.2-3
			c1.9-2.7,2.5-4.7-1.8-5.7c-1.9-0.4-3.1-2.2-3-4.4c0.2-3.2,2.5-4.9,4.9-6.5c0.7-0.5,1.9-0.2,2.6-1c12,0,24,0,36,0
			c1.8,1.6,4.2,2.7,4.7,5.4c0.2,0.9,1,1.2,1.8,1.3c4.2,0.7,8.8,0.4,10.7,5.9c1.7-2.1,0.6-3.4,0.5-4.8c-0.5-3.5,0.9-4.8,4.3-4.3
			c1.1,0.2,2.1-0.1,3.2-0.2C386.7,103.6,388.8,105.7,388.4,111z"/>
		<path class="st77" d="M230,277.4c-5-5.4-9.1-11.5-13-17.6c-0.5-0.8-1.5-1.1-1.7-2c-0.1-2.4,1.6-2,3-1.8c5.4,0.5,9.7-1.9,13.6-5.1
			c1.8-1.5,2.7-2.5,4.5-0.2c1.5,1.9,3.6-0.4,5.3,0.3c2.7,0.3,5.3,0.7,7.8,2.1c2,1.1,4.4,1.2,6.8,1.2c2.6-0.1,5.2,0,7.5,1.4
			c0.5,0.3,1.1,0.7,1.5,0.4c5.5-2.9,11.4,1.4,17.1-1.2c2.8-1.3,6.6,0.2,9.9,0.5c5.4,7,10.9,13.8,15.1,21.6c-0.3,2.8-2.4,2.5-3.3,1.2
			c-3.8-5.4-9.2-3.5-13.2-2.1c-6.4,2.2-12.2,1.4-18.4,0.2c-6.5-1.2-12.9-2.6-19.7-1.1c-4.8,1.1-10,0.6-15.1,0.8
			C235,275.9,232.6,276.7,230,277.4z"/>
		<path class="st78" d="M333.4,186.3c-4.6,6.8-9.3,13.5-14.6,19.8c-4.2,1.9-4.2,1.9-6-2.6c-0.3-0.8-1.2-1.8-1.7-1.4
			c-1.1,0.8-3.4,0.2-3.5,2.1c-0.1,3.2-1.8,1.8-3.5,1.8c-6,0.1-9.8-3-12.5-7.8c-0.6-1.1-1.1-0.6-1.8-0.4c-2.5,0.5-5.1,0.2-7.6,0.9
			c-1.5,0.4-2.7-0.4-3.5-1.6c-0.7-0.9-1.3-1.8-2.6-1.7c-3.9-4.7-7.6-9.6-10.8-14.8c1.7-2.9,1.7-2.9,5.4-2.9c0.5,0-0.1,0.5,0.3,0.2
			c0.3-0.2-0.1-0.7,0-1.1c0.9-2.8,1.9-3.1,3.9-1.3c3.4,3,4.2,3.4,6.7-0.2c3.3-4.7,7.9-7.1,12.9-9.4c2-0.9,2.7-0.1,2.7,1.5
			c0,2.4,1.5,3.2,3.3,4.1c2.4,1.1,4.8,2,6.6,4c1,1.1,2.5,1.2,3.2,0.3c0.9-1.2,0.4-2.6-1.3-3.2c-2.5-0.9-2.9-2.5-1.1-4.3
			c1.3-1.2,0.7-1.4-0.3-2.3c-1.5-1.3-0.6-2.6,0.9-3.1c2.2-0.6,4.5-1.4,6.7-0.1c2.3,1.5,1.6,3.3,0.6,5.3c-1.1,2.2-0.8,3.3,2.2,2.9
			c4-0.6,5.4,0.6,6.1,4.6c0.3,1.7,0.3,3.6,1.5,5c1.8,2.1,2.5,3.9,0.8,6.6c-1.7,2.7-3.9,3.1-6.7,2.6c-0.8-0.1-1.6-0.5-2.6-0.1
			c-0.3,1.9,0.9,3.3,1.8,4.6c1.7,2.4,3.5,2.4,5.1-0.1c1.4-2.3,3.2-4.4,4.7-6.7C329.7,185.9,331.2,184.6,333.4,186.3z"/>
		<path class="st79" d="M230,277.4c1.8-2.9,4.6-2.3,7.5-2.8c6.4-1,12.9,0.4,19.2-1.7c4.3-1.4,8.9,1.1,13.4,1.2
			c3.5,0.1,7,1.6,10.6,2.4c0.9,0.2,2,0.3,2.8,0c4.9-2,10.2-2,15.1-3.5c3.2-1,3.9,2.2,5.5,3.6c1.4,1.2,2.1,2.1,3.4,0.1
			c3.7,2,5,6.1,7.5,9.1c4.3,5.4,8.1,11.1,12.1,16.7c-2.5,0.3-7.1-2.1-8-4.6c-0.5-1.5-1.5-2.5-2.5-3.6c-1.2-1.3-2.2-1.6-3.7-0.3
			c-1.8,1.6-3.4,1.2-6,0c-3.5-1.6-8-3-11.9-1.7c-3.5,1.2-7.1,1.8-10.5,3c-4.3,0.1-6.9-1.7-8.7-5.9c-2-4.8-6.3-8-11-10.3
			c-0.8,2.2,2.2,3,1.5,4.9c-0.5,0.7-1.2,1.3-2,1.2c-6-1.3-11.2,1.9-16.8,2.8c-1.7,0.3-3.5,0.4-5.2,0.4c-0.2,1.6,1,3.4-0.8,4.6
			C237.2,288.2,233.4,283,230,277.4z"/>
		<path class="st80" d="M118.4,125.7c-5.6-7.5-11.2-15-16.9-22.4c-1.4-1.9-0.5-2.3,1.3-2.3c4.1,0,8.2,0,12.3,0
			c18.7,0,37.3,0.1,56,0.1c2.3,2.7,1.2,5.7,0.8,8.6c-0.1,0.9-0.8,1.6-1.6,1.7c-4.2,0.4-5.8,3.9-8,6.7c-0.9,1.1-6,1.4-6.5,0.2
			c-1.4-3.1-3-2.1-4.7-0.6c-1.7,1.5-2.7,2.2-5,0.1c-2.8-2.5-10.3,1.3-11.4,5.4c-0.2,0.6-0.1,1.3-0.5,2c-0.4,0.6-0.9,1.1-1.5,1.4
			c-1.3,0.6-2.7,1.8-4,0.3c-1.3-1.6,0.2-2.6,1.9-4.4C122.6,129.2,122,129.3,118.4,125.7z"/>
		<path class="st81" d="M312,389.7c0-1.1,0.2-2.1-0.6-3.1c-0.7-0.8-2.2-1.5-0.3-2.8c1.2-0.8,1.6-3,3.8-1.7c3.7,2.2,7.9-0.6,11.9,1.3
			c1.4,0.7,3.5-2.2,6.4-2.3c5.9-0.1,11.7,0.9,17.6,0.9c3.2,0,6.2,2,9.6,2.2c2.1,0.1,4.1,0.4,5.9-0.4c2.6-1,5.1-1.5,7.8-0.5
			c0.9,0.3,1.5,0.2,2.1-0.6c0.4-0.6,1.2-1.3,1.5-0.5c2,5.8,3.6,0.9,4.7-0.4c1-1.2,1.7-0.3,2.5-0.4c4.1,4.2,7,9.3,10.6,13.9
			c-1.4,1.3-3,0.8-4.3,0.8c-22.6,0-45.3-0.3-67.9,0.2C317.4,396.6,314.2,394.5,312,389.7z"/>
		<path class="st82" d="M239.9,184c-1.2,3.4-4.9,4.5-6.5,7.4c-2.7-2.1-4.3,0.5-6.4,1.3c-0.6,0.3-1.7-0.1-1.6-0.8
			c0.7-4.1-2.9-3.8-4.7-4c-2.6-0.2-3.4,1.7-0.7,4.6c-3-0.8-3.9-1.9-3.3-4c0.5-1.6-0.3-2.3-1.5-2.8c-1.4-0.6-1.8,0.3-2.5,1.3
			c-1.5,2.2-3.2,3.6-5.9,0.8c-0.7-0.7-4-3.9-4.9,0.7c-1.7-1.7-3.8-0.3-5.5-0.2c-2.8,0.2-6.2-1.4-8.5,1.7c-1.5-1.5-3.7-0.5-5.4-1.4
			c-0.8-0.5-1.3-1.5-2-2c-3-1.9-2.7-3.4-1.3-6.8c1.9-4.5,5.3-6.5,8.8-8.9c3.6-1.5,7.6,0.4,11.3-1.2c6.2-2.6,13.3-1.1,19.3-4.4
			c1.2-0.6,2,1.6,3.7,0c1.2-1.2,3.5,0.6,5.4,1.1C231.8,172.3,236.4,177.7,239.9,184z"/>
		<path class="st83" d="M284.2,294.6c3.5-1.9,8.2-0.4,11-4.2c0.5-0.7,1.1,0.4,1.7,0.5c2.9,0.5,5.6,1.8,8.7,1.5
			c0.8-0.1,3.4-0.9,2.3,1.9c1.9,0.6,3.9,1,4.7-1.3c0.9-2.8,1.9-1.9,3.2-0.4c1.6,1.8,4.6,2.2,4.6,6c0,1.4,4.3,2.8,6.7,4.2
			c4.8,5.7,9.3,11.7,13.2,18.1c-0.4,0-1,0.1-1.2-0.2c-2.6-3.5-5.4-3.7-8.9-1.1c-1.6,1.2-3,0.4-4.1-1.2c-2.1-3-5.2-3.6-8.6-3.1
			c-4.1,0.7-8.3,2.2-11.8-1.7c-0.4-0.5-1-0.4-1.5-0.1c-4.5,3.5-9.1,0.7-13.7,0.2c-2.7-0.3-4.9-1.6-7.3-2.7c-0.8-0.7-2-1-2.8-1.7
			c-2.1-1.9-1.8-5.1,0.4-6.9c1.6-1.3,3.9-1.9,0.8-4.8C279.3,295.2,283.4,295.7,284.2,294.6z"/>
		<path class="st84" d="M314.5,163.3c-0.8,1.9-2.4-2.1-3.4,0.6c-0.3,0.8-1.3,1.1-0.9,2.2c0.3,0.7,2.3,2.8-0.9,2.5
			c-1.4-0.1-1.5,0.9-1.8,1.7c-0.2,0.6,0.3,1.2,0.8,1.1c4-0.5,3.4,2,3.1,4.5c-0.1,0.6,0.4,1.3,0.6,2c-1.2,1.1-2.8-2.6-3.8,0.4
			c-0.3,0.8-1.2-0.3-1.4-0.8c-1-2.8-3.7-3.5-6-4.5c-2.9-1.4-6.8-1.9-4.8-7.2c-1.4,3.1-3.9,2.7-6,3.3c-4.5,1.2-5.8,6-9.2,8.6
			c-1.8,1.4-5.1,1.7-6.2-0.3c-0.5-0.9-0.8-2.5-2.1-2c-1.5,0.5-1.1,1.8-0.3,3c0.6,0.9,0,1.7-0.8,1.9c-0.9,0.2-2,0.1-2.2-1.2
			c-0.1-0.6,1.2-1.6-0.5-1.6c-0.7,0-1.3,0.5-1.4,1.2c-0.1,1.4-1.4,1.5-2.3,2c-4.1-5.4-4.1-5.4,1.3-9.9c0.7-0.6,1.4-1.1,1.4-1.9
			c0-2.3,1.7-2.5,3.3-3c1-1,2.5-1,3.6-1.8c1.3-1,3.7-1.4,1.1-3.6c-0.5-0.4-0.4-1.3,0.1-1.9c0.8-0.8,1.8-0.8,2.6-0.4
			c3.6,2,4.7-0.5,5.7-3.1c0.4-1,0.6-2.2,1.9-2.3s1.2,1.2,1.6,2c1.5,2.6,6.8,4.2,9.4,2.7c1.3-0.7,2.7-1.2,4.4-2.1
			c-3.6-3-7.5-4.4-11.6-5.3c-2-0.4-3.2-1.2-3.8-3.1c-1.1-0.8-2.6-1.7-0.9-3.1c2.5-2.1,3.4-5.3,5.6-7.6c2.1-1,2.2,0.6,2.5,1.9
			c0.3,1.5-0.3,3-1,4.5c2.6-4.2,4.9-4.6,9.2-3.6c3,0.7,6.5,0.3,9.4-1.4c1.6-1,3.1-0.7,4.7-0.4c1.9,0.4,2.5,1.4,1.7,3.3
			c-1.1,1-2.5,0.9-4.5,0.9c4.1,1.5,2.2,4.8,2.6,7.2c0.6,3-2.1,4.9-4,6.5c-1.8,1.5-2.3-0.2-2.1-2.1c-0.8,2.5,1.4,3.1,2.4,4.3
			C313.2,159,315.5,160.4,314.5,163.3z"/>
		<path class="st85" d="M292.4,255.2c-2.4,0.7-4.7,1.6-7.4,0.3c-2.6-1.2-4.9,2-7.7,1.6c-0.7-0.1-1.5,0.6-2.3,0
			c-2.6-1.9-5.2-1.8-7.8,0c-0.8,0.6-1.9,0.7-2.7,0c-3-2.5-6.6-2-10.1-1.9c-4.6,0.1-8.1-3.7-12.7-3.3c2.5-2.4,1.8-4.3-0.5-6.5
			c-1.5-1.4-1.1-3.5,1.1-3.6c2.4-0.1,1.3-1.2,1.5-2.3c0.4-2.5,1-4.6-1.1-6.9c-1.5-1.7,1-2.6,2.2-3.5c7.8,2,15.5,2.2,23.3,0.2
			c1.9-0.5,1.4-2.6,3.1-2.7C278.6,235.7,285.6,245.4,292.4,255.2z"/>
		<path class="st86" d="M314.5,163.3c-0.6-2.3-2.1-4-3.8-5.5c-2.7-2.4-4.3-5.1-0.1-8.1c0.8,1.8-1,3.3-0.5,4.9
			c3.1-2.4,3.6-4.6,3.6-6.3c0.1-3,2-6.1-2.3-7.9c1.9,0,3.8,0,5.6,0c1.4-1.9,3.5-2.5,5.7-2.7c4.4-0.4,6.3,1.3,6.8,6
			c-1.4,3-3.2,5.9-3.5,9.4c-0.2,2.8,0.7,4.3,3.6,4c3.8-0.3,7.6,0.1,11.4,0.7c1.4,0.2,2.6,0.7,3.6,1.7c4,3.6,4,3.6,1.9,8.9
			c-4.4,6-8.8,12-13.2,18c-2.1-0.4-3.6,0.6-4.2,2.4c-1,2.7-3.5,4.4-4.6,7.1c-1.1,2.7-4,2.6-5.7,0.5c-1.6-1.9-2.7-4.4-3.7-6.8
			c-0.7-1.8,0.9-1.6,1.9-1.6c1.5,0,3.1,0.6,4.4,1c3.3,1,3-1.7,4.3-3c1.6-1.6,0.9-2.4-0.5-3.6c-2.1-1.7-2.3-4.4-2.6-6.8
			c-0.4-3.2-1.5-4.5-4.8-3.4c-1.1,0.4-2.7,1.8-3.7,0.2c-0.9-1.4-0.7-3.3,0.4-4.6C315.8,166.2,316.5,164.9,314.5,163.3z"/>
		<path class="st87" d="M130.8,142.9c-1.4-0.7-1.7-2.2-2.4-3.4c-0.8-1.7,0.3-2,1.5-1.7c2.4,0.5,4.2-0.3,5.7-2.2
			c1.1-1.4,2.2-1.3,3.4-0.1c2.7,2.7,5.5,3.7,9.2,1.4c2.2-1.3,4.9-1.1,6.6,1.5c1.5-1.4,1.6-3.6,3.1-4.9c0.8-0.3,1.5-0.1,2.1,0.6
			c0.8,4.1,1.4,8.3,5.1,11c0.1,0.2,0.1,0.5,0.2,0.7c0.2,0.4,0.2,0.4,0.3-0.1c0.2-1.1,0.7-2.2,0.9-3.4c0.6-5,1.4-5.8,6.1-7.1
			c1.6,1.4,0.1,3.2,0.6,4.7c-0.4,1.8,0.2,3.2,1.5,4.3c1.1,1,1.9,2.2,2.3,3.7c1.3,4.3,3.3,4.9,7.2,2.5c4.3-2.7,7.6-1.3,8.4,3.7
			c0.6,4.6-3.1,8.1-3.3,12.7c-0.1,1.7-2,1.5-3.3,1.5c-1.5-0.2-3-0.1-4.5-0.5c-4.2-1.1-5-0.6-7,3.5c-1.3,2.6-4.2,2.3-6.4,3
			c-1.7,0.5-1.9-1.4-2.3-2.7c-0.8-2.1-3.3-2.8-5.3-1.7c-1.5,0.9-2.3-0.1-3-1.2c-0.8-1.2-1.9-2.6,0-3.8c1.6-1.1,2.2-2.4,1.7-4.5
			c-0.4-1.6,0.2-2.9-1.6-4.6c-3.4-3.2-7-3.8-11.1-3.9c-2.5-0.1-2.5-2.1-2.4-3.9c0-1.2,0.9-2.5-0.7-3.2c-1.9-0.8-3.8-1.5-5.9-1.4
			c-0.3,0-0.4,0.2-0.6,0.4c-2,2.9-2,2.9-4.4,0.1C132,143.2,131.5,142.9,130.8,142.9z"/>
		<path class="st88" d="M172.6,139.5c-2.4-1.3,1.3-2.7,0-4c-1.7-0.4-3.1-1.3-4.5-2.4c-2-1.6-4-3.5-7.4-1.8c-1.8,0.9-4.5-0.6-7.1-0.4
			c-1.6,0.1-2.6-3-1.8-5.1c0.9-2.4,2.8-1.7,3.9-1.2c-3.6,0.3-6.9-2.6-10.8-3.8c-2.9-0.9-5.9-1.1-7.7,2.4c-0.8,1.5-2,2.6-3.9,1.4
			c-0.9-2.9,1.4-4.5,2.9-6.2c1.7-1.8,4.2-2.1,6.7-2.4c2.7-0.4,4.7-1.2,4.9,2.8c2.1-2.2,4-4.3,6.7-4.4c1.8,0,1.4,2.6,2.3,4.4
			c0.8-1.1,0.4-2.8,2-3c1.9-0.2,1,1.9,2.2,2.6c0.6-2.9,1.5-5.6,5.1-5.3c0.2-1.7-1.9-1.7-1.9-3c0.5-0.7,1-0.6,1.7-0.2
			c3.4,1.7,4.8,1,5-2.8c0.1-2,0-4,0-6.1c0.8,0,1.6,0,2.4-0.1c4.6-0.6,7.5,1,10.2,5.2c3.4,5.3,7.5,10.2,11,15.5c-0.7,6-2.3,7.1-8,5.1
			c-2.2-0.8-4.1,0.9-6-0.2c-0.3,1.1,1.1,1.6,0.9,2.2c-1.2,3.1-0.2,5.6,1.7,8.1c0.7,0.9-0.2,1.5-1.2,1.6c-0.7,0.1-1.4-0.2-2-0.1
			c-1.9,0.3-4.6-1.9-5.6,1.7C174.3,140.4,173.2,140.1,172.6,139.5z"/>
		<path class="st89" d="M130.8,142.9c1-1,1.9-1.2,2.5,0.3c0.5,1.4,1.3,2.3,3.1,2.3c-1.5-3.4,0.7-3.6,3-3.4c1.7,0.1,3.1,1.4,5,1.4
			c1.2,0,2,1.6,1.5,3.2c-1.1,3.4-1,3.1,2.1,3.5c2.8,0.4,5.2,2.8,8.3,1.2c0,0,0.6,0.6,0.6,0.9c-0.1,3.4,1.7,4.2,4.9,3
			c-2.1,5.2-2.1,5.2,0.8,7.4c-0.3,0.1-1.3,1.9-1.6,2.6c-0.8,1.7-2.3,0.4-3.9,0.5c0.9,1.5,1.7,2.7,2.5,4c1.4-1.2,1.5-3.3,3.2-4.1
			c1.6,1-0.6,2.2,0.3,3.4c2.6-1.8,4-1,4,2.2c0,2.1,0.4,3.5,2.6,1.4c0.8-0.7,1.5-1,2.6-0.6c0.9,0.3,1.5,0,1.6-1.1
			c0.3-3.9,3.6-6.1,7.1-4.4c1.7,0.8,3.5-0.1,5,0.9c0.3,1.7,3.5,1.7,2.4,4.1c-2,1.1-2.3,4.4-5.6,3.9c-0.8-0.1-1.4,1.4-1.3,2.3
			c0.3,1.9-0.6,3-1.9,4.2s-2,2.3,0.5,2.9c2,0.5,1.6,2.7,2.5,3.9c-2.6-1.1-5.1-1-7.8-0.3c-2.6,0.7-5.3,1.1-7.1-2
			c-1.3-2.2-3.2-0.1-4.8-0.1c-4-5.3-8.3-10.4-11.8-16c-1.8-2.9-4.3-5.2-6.1-8c-2.2-3.4-4.8-6.6-7.1-9.9
			C135.4,149.3,133.1,146.1,130.8,142.9z"/>
		<path class="st90" d="M328.5,144.4c-0.2-5.4-2-6.7-7.2-5.3c-1.4,0.4-2.9,0.8-4.3,1.2c-0.1-4-3.4-1.2-4.8-2.3
			c-2.3,3.5-7,0.4-9.5,3.4c-0.1,0.1-1.2-0.4-1.7-0.8c-0.9-0.8-1.4-3-2.9-1.9c-1.7,1.2-4.6,1.7-4.5,4.7c0,1,0,2.3-1.1,2.1
			c-1.4-0.1-1.1-1.4-1-2.6c0.3-2.3,2.8-4.8-0.6-6.7c1.1-1.4,2.1-2.8,3.2-4.2c4.6-2,9.3-2.7,14.2-1.5c1.8,0.4,3.1-0.8,4.5-1.5
			c0.7-0.4,1.5-0.6,2.1-1.2c2.4-2.3,4.6-3.5,6.6,0.5c0.2,0.4,0.6,0.8,1,0.7c3.7-0.5,7.9,1.2,11-2.3c5.5-0.9,11-2.4,16,1.5
			c2,1.6,3.2,3.7,2.3,6.4c-1.5,4.3-3,8.5,2,12c1.8,1.3,1.4,3.8,0.1,5.6c-1.4,2-3.5,3.4-6,2.2c-3.7-1.8-7.3-2.5-11.4-1.8
			c-3.2,0.5-6-1.9-6.8-5.1C329.4,146.4,329.3,145.3,328.5,144.4z"/>
		<path class="st91" d="M244.8,229c-2.1,2-2,3.7,0.6,5.3c0.8,0.5,2.3,1.6,0.8,2.4c-3,1.7-1.8,3.4-0.4,5.2c0.4,0.6,0.6,1.2,0,1.8
			c-0.7,0.6-1.2,0.1-1.7-0.4c-0.8-0.7-1.7-1.8-2.7-0.4c-1,1.3,0.3,1.8,1.1,2.5c3.3,3,3.2,3.7-0.9,6.5c-1.9,0-3.9-0.3-4.9,1.9
			c-1.4-0.6-0.6-1.8-1-2.5c-0.6-1.1-1.3-2.7-2.3-0.4c-1.6,3.5-5.1,3.7-8.2,4.7c-0.1,0-0.4-0.1-0.4-0.1c-2.5,3.5-5.5,2-8.6,1.1
			c-0.2-0.1-0.7,0.7-1,1.1c-5.2-6.7-10.4-13.4-14.9-20.5c3.5,0.1,6.2-2,9.2-3.4c5.9-2.8,12.2-3.4,18.3-0.3c1.5,0.8,3,0.8,4.2-0.2
			c1.2-1.1,2.3-0.8,3.7-0.6c2.5,0.3,5.5,1.5,6.3-2.7C242.2,228.9,243.7,228.9,244.8,229z"/>
		<path class="st92" d="M170.9,300.1c0.2,0.9,0.4,1.8,0.7,3.1c0.9-1.2,1.6-2.5,2.7-3.3c1.1-0.7,1.2-3,3.4-2.1c2.3,1,4.3,1.7,4,5
			c-0.6,6.5,0.2,7.3,6.3,8.9c2.9,0.8,3.7,3.9,6.1,5.2c0.1,0.1,0.1,0.8,0,1c-0.7,0.6-1.8,1.4-2.5,0.9c-2-1.4-3.8-1.2-4,1.1
			c-0.2,1.9,1,4,3.6,4.3c0.2,0,0.5,0.2,0.8,0.4c-0.9,1.9-1.9,3.8-2.8,5.6c-0.4,0.9-1.1,2-2,1.7c-3.7-1.3-7.9,1-11.2-1.6
			c-1.2-1-2.5-1.5-4-1.2c-4.6,0.9-9.2,0.5-13.8,0c-0.8-0.1-2,0.4-1.7-0.6c0.9-3.4-2.3-2.6-3.6-3.8
			C158.5,316.2,164.6,308.1,170.9,300.1z"/>
		<path class="st93" d="M133.3,124.8c1.1-0.1,2.1-0.5,2.9-1.3c1.1-1.2,0.1-3.7,2.7-4c4.3-0.4,8.3,0.2,12,2.9c2.2,1.6,4.9,2,7.7,1
			c0.1,1.3-0.6,2-1.9,2.1c-4.7,0.5-4.7,0.5-2.8,4.9c2.9-2.2,4.1-2.1,6.2,0.6c1.5,0.1,1-7.1,4-1.1c4.6-0.8,5.5,4.1,8.6,5.5
			c-2.5,1.9-6.1,3-5,7.3c-1.6,0.1-0.4,3.9-3.2,2.5c-0.7-1.9-3.5,0.1-3.3-1.1c0.4-3.4-3-6.1-1.6-9.6c0.3-0.4,0.8-0.9,0.3-1.3
			c-0.7-0.5-1.4-0.3-1.9,0.5c0,1.7-0.6,3.3-1.7,4.5c-0.7,0.7-0.2,2.5-1.9,2.2c-1.2-0.2-0.8-1.8-1.2-2.1c-1.6-1.3-3.6-1.8-5.2-0.1
			c-1.9,1.9-3.5,1.5-5.8,0.6c-1.5-0.6-3.8,0.9-3.6-2.4c0-0.4-1.1-1.9-1.7-0.8c-1.9,3.7-4.8,4.1-8.3,3.1c-0.1,0.3-0.1,0.5-0.2,0.8
			c-3.3-4.6-6.6-9.2-10-13.8c4,2.1,5.6,1.7,10-3c0.8-0.9,1-2.4,2.7-2.6c0.7,1.6,0.4,3-1,4.2c-0.6,0.5-1.7,0.8-1.1,1.8
			c0.8,1.3,1.6,0.1,2.4-0.3C131.9,125.6,132.6,125.1,133.3,124.8z"/>
		<path class="st94" d="M275.9,195.4c0.6-0.7,1.7-1.2,2.1-0.5c2.6,4.9,7.1,1.1,10.5,2.3c0.4,0.2,1.2-0.1,1.5-0.4
			c1.2-1.1,1.8-1.6,2,0.7c0.1,1,1.2,1.8,2.4,1.9c1.7,0.2,2,0.9,1.4,2.5c-0.8,2.1,1,2.6,2.2,2.3c3.2-0.8,5.9,0,8.5,1.8
			c1.1-1.9-1.4-2-1.2-2.9c1.1-2.1,4.5,1,5-2.8c0.1-0.9,1.9,2.7,4.1,2.1c0.6-0.2,0.4,0.6,0.2,1.1c-1.1,2.8-0.8,3.1,2.1,2.8
			c0.7-0.1,1.4-0.1,2-0.1c-5.3,7.3-10.6,14.6-15.9,22c-1,1.5-1.8,2.3-3.2,0.4C291.8,217.4,283.8,206.4,275.9,195.4z"/>
		<path class="st95" d="M188.2,171.6c0-1.9-3.1-1.9-2.4-4.1c1.7,0.1,2.9,0.3,2.7-2.5c-0.2-3.6,3.3-6.7,3-10.6c1-1.7,2.4-3,4.3-3.8
			c7.8,0.8,14.7,4.4,21.2,7.3c-0.7-0.6-1.1-2.1-1.8-3.3c-0.9-1.4-1.7-2.9,0.1-4.3c4.6,5.1,8.3,10.9,12.3,16.4c-1,0.7-1.9,0.7-3,0.2
			c-2.3-1.2-4-1-3.7,2.8c-0.9-1.9,0-4.2-3.6-2.4c-3,1.5-7,3.1-11.2,2.1c-2.1-0.5-4.8,0.7-6.9,1.8c-3.4,1.7-7.3-0.7-10.6,1.6
			C188.5,172.3,188.3,171.9,188.2,171.6z"/>
		<path class="st96" d="M241.4,293.2c0.9-2.4-1.2-4.3-1.2-7.2c4.5,3.2,8.6,0.6,12.6-0.4c3.7-0.9,7.1-2.5,11-1
			c0.6,0.2,1.5-0.4,2.3-0.6c1.3-0.1,3.1-1.2,3.5,0.7c0.3,1.8,1.9,4.3-0.5,5.6c-3.4,1.8-4,4.2-3,7.7c0.6,2.2-1.5,4-2.1,6
			c-0.4,1.4,0.7,3.5-1.9,3.8c-3.4,0-5,1.4-4.2,5c0.2,1,0,2.2,0,3.2C252.2,308.4,246.4,301.1,241.4,293.2z"/>
		<path class="st97" d="M195.6,151c-0.8,1.8-2.5,2.5-4.1,3.3c0.1-1.8-0.1-3.4-2.2-3.8c-1.7-0.3-3.3-0.9-4.6,1.2
			c-1.5,2.4-4.3,1.5-6.3,1.2c-1.6-0.2-2.6-2.3-2.4-4.2c0.3-2.5-1.9-3.2-3.1-4.5c-1.4-1.6-2.5-3-0.3-4.7c0.4,0,1,0.1,1.2-0.1
			c2.7-2.2,5.4-2.8,8.8-2.1c-1.3-1-1-3.4-3.5-3.4c-0.4,0,1.8-1.9-0.1-2.7c3.3-1.7-0.1-3.3-0.2-4.9c0-0.4,0.1-0.8,0.2-1.5
			c1.9,1.1,3.8,1.7,5.6,0c0.9-0.8,1.6-0.1,2,0.5c1.4,2.1,3.8-0.9,5.3,1.1c0.2,0.3,0.9-1,1.3-1.8c0.4-1-0.3-2.6,1.4-3.1
			c2.5,3.5,5,7,7.5,10.5c-1.1,5.8-4.3,6.9-11,4c2,0.9,2.5,3.4,0.9,3.7c-3.6,0.8-3.7,4.4-6.4,6.1c3.7-0.4,6.5,1.8,9.9,2
			C197.4,148,196.7,149.9,195.6,151z"/>
		<path class="st98" d="M195.6,151c0.1-0.8,0.2-1.6,0.4-2.7c-1.7,0.1-0.9,1.9-1.8,2.2c-3-3.8-5.6-4.4-10.5-2.2
			c1-3.8,4.2-6.1,5.3-9.4c0-0.1,0.1-0.3,0.3-0.3c2.6-1.3,2.6-1.3,0.9-3.9c7.4,3,8.1,2.8,12.1-2.7c4.7,5.8,9.2,11.7,13.1,18
			c-0.7,3.3,1.8,5.3,3.3,7.6c0.7,1.1,2.2,1.7,1.2,3.4C212.5,155.8,204,153.5,195.6,151z"/>
		<path class="st99" d="M328.5,144.4c1.3,0,2.3,0.3,2.4,2c0.3,4.4,2.9,5.6,7.1,4.6c3-0.7,6.3,0.1,8.8,1.9c2.9,2.1,4.8,0.3,6.1-1.3
			c1.2-1.5,1.8-3.8-1.2-5.2c-2.3-1.1-3.1-3.4-2.7-5.9c0.3-2,1-4,1.6-6c1.2,0.5,1.6,1.3,0.9,2.5c0.3,2-1.2,5.1,1.1,5.9
			c3.4,1.1,6.4,4.6,10.6,2.4c-4.9,8.1-10.9,15.4-16.6,22.9c0-1.1-0.3-2.2,0.5-3.1c1.3-1.4,0.7-2.1-0.9-2.5c-0.3-0.1-0.7,0.1-0.8-0.1
			c-3.6-6.5-10-4.3-15.3-4.5c-4.7-0.2-6.3-1.9-5-6.5C325.9,149,325.8,146.1,328.5,144.4z"/>
		<path class="st100" d="M313,129.8c-1.7,2.1-3.5,2.7-6.3,1.7c-2.8-0.9-6-0.5-8.9,0.5c-1.3,0.5-2.4,1.2-3.7,0.1
			c7.2-9.9,14.4-19.8,21.5-29.8c1.4-1.9,3.1-1.3,4.8-1.2c-0.1,1.3-0.9,1.5-2.1,1.9c-2.4,0.9-4.6,2.6-4.4,5.6
			c0.2,2.8,2.1,3.8,4.7,3.9c2.4,0.1,3,1.5,1.9,3.7c-0.6,1.1-1.1,2.4-1.7,3.5c-1,1.6-1,1.6,1.5,1.8c0.1,0.1,0.3,0.3,0.4,0.4
			c0.4,1.7-0.3,3.2-2,2.2c-3-1.7,0.2,1.4-0.8,0.9C317.6,128.1,314.3,127.9,313,129.8z"/>
		<path class="st101" d="M388.4,111c-2.2-5.9-2.2-5.9-8.4-4.9c-1.6,0.3-2.7-1.2-4.5-1.4c-1.1,3.3,0.7,6.5,0.5,9.7
			c-2.2-0.3-4.5,0.7-5.3-3.2c-0.4-2.1-5-2.3-7.9-2.3c-2,0-3.5,0.5-3-2.5c0.4-2.7-4.1-2.4-3.6-5.4c12.9,0,25.9,0,39.5,0
			C393.4,104.8,391.3,108.2,388.4,111z"/>
		<path class="st102" d="M286.1,147c2.3,2.6,5.9,1.6,8.5,3.2c2.3,1.4,5,2,7.3,3.7c1.3,1,0.5,1.6,0.6,2.2c0.2,1-0.8,1.5-1.6,1.2
			c-1.1-0.4-1.7,0.2-2.5,0.7c-2.4,1.6-4.6,1-7.5,0.5c-4-0.6-4-2.8-4.9-5.2c-2.8,0.7,0.8,3.7-1.9,4.8c-2.2,0.9-3.8,3.2-6.3,0.9
			c-0.4-0.4-1.4-0.6-1.6,0.4c-0.3,1,0.4,1,1.2,1c1-0.1,1.5,0.5,1.7,1.4c0.2,1.2-0.7,1.9-1.6,2c-2.3,0.3-3.6,3.7-6.5,2.1
			c-1.6-1.1-0.6-2.1,0.1-3c2.3-3.1,4.7-6.2,7-9.4c1.3-1.7,2.1-3.5,5.1-2.8C285.3,151.2,285.8,148.8,286.1,147z"/>
		<path class="st92" d="M152.9,324.8c-0.4,1.9,0.4,4.7-3.1,4.1C150.6,327.4,151.3,325.8,152.9,324.8z"/>
		<path class="st92" d="M149.6,329.1c0.7,2.9-1.1,4-3.4,4.8C146.7,331.7,148.5,330.7,149.6,329.1z"/>
		<path class="st92" d="M175,294.6c-0.4,2.3-1.2,4.3-3.8,4.9C172.3,297.7,173.3,295.9,175,294.6z"/>
		<path class="st73" d="M300.1,357.9c1.4,1.3,2.3,2.2,1.5,3.5c-0.2,0.3-1.2,0.5-1.4,0.2C298.8,360.7,300,359.5,300.1,357.9z"/>
		<path class="st103" d="M323.4,368.3c-0.8,0.6-1.7,1.4-2.8,0.5c-0.6-0.5-0.6-1.2-0.3-1.8c0.5-1.1,1.5-0.6,2.4-0.5
			C323.9,366.8,324.3,367.4,323.4,368.3z"/>
		<path class="st71" d="M323.4,368.3c-0.2-0.6-0.4-1.2-0.6-1.8c0.7-1,1.9-2.2,2.7-0.8C326.2,367,325.1,368.2,323.4,368.3z"/>
		<path class="st104" d="M262.1,307.7c-0.4-4.6,5.2-8.3,2-13.6c-1.2-1.9,1.1-3,2.6-3.4c4-0.9,0.9-4.4,2.3-6.2
			c0.1-0.2-2.2,1.3-2.8-0.6c-0.9-0.8-2.2-1.4-2.6-2.4c-0.6-1.2-1.1-3,0.5-4s1.4,1.2,2.1,1.5c3.1,1.3,5.6,3.4,7.6,6.1
			c1.4,1.8,3.4,2.6,3.6,5.8c0.1,2.8,3.7,4,6.8,3.8c-0.1,1.5-2.2,0.7-2.4,2.2c1.1,1.5,2.2-0.9,3.4,0.4c-1.1,2.4-0.1,6.4-4.9,6.7
			c-0.5,0-0.4,3,0.6,4.4c0.7,1,1.6,1.8,2.4,2.6c-1.8-0.6-3.6-0.8-3.6,1.9c0,1.9-1.1,2.5-2.6,3.1c-2,0.9-4.3,0.3-6.3,1.9
			c-0.8,0.6-3.6,0.2-3-2.9c0.3-1.7,2.7-6.4-3.3-3.8C261.7,312.4,263.9,308.2,262.1,307.7z"/>
		<path class="st71" d="M276.9,324.6c2.3,0,4.6-1.3,6.1,1.1c0.5,0.8-0.6,1.3-1.4,1.6C279,328.3,277.9,326.9,276.9,324.6z"/>
		<path class="st105" d="M351.5,137.1c-0.3-0.8-0.6-1.7-0.9-2.5c0.6-3.9-3-8.3-6.9-8.1c-3.5,0.1-6.9,0.5-10.4,0.7
			c-0.8-0.4-1.3-0.9-0.8-1.8c1.4-1.1,3.3-0.8,4.9-1.4c2.9,1.2,5.5,2.1,8.7-0.1c2.3-1.5,5.5-1.6,8.3-2.4c1.9-0.6,2.3,1.8,4.5,1.8
			c3.2,0,1.2,3,0.5,4.2c-1.4,2.4-1.5,5.8-5.2,6.4C352.6,134.2,353.1,136.7,351.5,137.1z"/>
		<path class="st100" d="M337.5,124c-0.8,2.9-3.3,1.1-4.9,1.7c-2.9,0.2-0.8-4.5-3.9-4.1c-2.2,0.3-4.2,1.1-6.5,0.8
			c-0.7-0.1-1.3-0.3-1.9-0.7l-0.1-0.1c0.5-1.5,0.9-3,1.6-5c1.1,2.7,2,3.4,3.9,1c2.5-3.2,7.1-2.3,9,1.4
			C335.6,120.6,335.9,122.6,337.5,124z"/>
		<path class="st106" d="M321.5,186.6c-2.3-0.2-4.6-1.5-6.7-3.4c-0.9-0.8-1.2-2.2-0.3-2.1c2,0.2,4.6-3.3,6.2,0.8
			c0.3,0.8,1.7,1.3,2.6,1.8c1,0.6,1.2,1.5,0.8,2.5C323.7,187.2,322.9,187,321.5,186.6z"/>
		<path class="st78" d="M328.2,180.8c0.3-1.8-1.4-2.8-0.4-4.2c0.2-0.2,1.3-0.2,1.4,0.1C330.2,178,330.1,179.3,328.2,180.8z"/>
		<path class="st88" d="M157.9,133.8c0.5-2.1,0.5-2.1,4.4-1c-0.4,1.5-1.7,1.5-2.8,1.8C159,134.4,158.5,134.1,157.9,133.8z"/>
		<path class="st88" d="M164.5,145.3c1.8,0.2,1.4-2.6,3.2-2.5c-1,1.6-0.8,3.9-2.7,5.1C164.1,147.1,164.6,146.2,164.5,145.3z"/>
		<path class="st107" d="M320.3,121.6c2.2-0.7,4.6,0,6.9-1.1c1.8-0.9,4.6-0.3,4.5,3c0,0.8,0.1,1.6,0.8,2.2c0.3,0.5,0.5,1.1,0.8,1.6
			c0,0.4,0.1,0.9-0.1,1.2c-1.5,2.5-12.4,3-13.1,0.3c-1.1-3.9-2.1-1.9-3.7-0.7c-1,0.8-2,2-3.5,1.7c0.5-1.5,1.4-2.5,3.1-2.7
			c0.9-0.1,0.9-1.2,1.1-1.9c0.2-0.8-0.3-0.9-0.9-0.7c-0.9,0.2-1.9,0.9-2.2-0.6c-0.1-0.4,0.4-0.9,0.8-1.3c0.9-0.9,1.8-0.4,2.5,0.1
			C319,123.7,320.3,124.5,320.3,121.6z"/>
		<path class="st70" d="M183.6,319.3c-0.1,0.8-0.5,1.3-1.3,1.2c-1.1-0.2-1.5-1.1-1.7-2.1c-0.1-0.8,0.5-0.8,1-0.8
			C182.9,317.6,183.4,318.4,183.6,319.3z"/>
	</g>
</g>
<g id="token_pocket" class="st0">
	<polygon class="st108" points="276.5,120 91.5,120 91.5,233 146.5,233 146.5,421 240.5,421 240.5,233 276.5,233 	"/>
	<path class="st109" d="M326,97h-35.1h-27.6h-63.8v303h91v-79.3h35.2c61.7,0,111.9-50.1,111.9-111.8C437.6,147.1,387.7,97,326,97z"
		/>
</g>
<g id="bancor" class="st0">
	<polygon class="st110" points="228.5,296 145.5,248 145.5,153 228.5,201 	"/>
	<polygon class="st110" points="229.5,426 146.5,378 146.5,284 229.5,332 	"/>
	<polygon class="st110" points="347.5,248 264.5,296 264.5,201 347.5,153 	"/>
	<polygon class="st110" points="374.5,363 264.5,425 264.5,331 374.5,269 	"/>
	<polygon class="st110" points="329.5,123.7 248.5,75.1 166.5,122 247.5,170.7 	"/>
</g>
<g id="paytomat" class="st0">
	<path class="st111" d="M401.1,197.6c-10.2-85.1-82.2-137.8-167-125c-60.3,9-115.3,63.4-117.4,121.2c-2.5,66.6-1.2,133.3-1,199.9
		c0,16.2,12.7,27.3,28,26.9s26.7-11.9,27.3-28c0.3-9.9,0.1-19.8,0.1-31.9c5.5,0,9.5,0,13.6,0c29,0,58,1,86.9-0.5
		c15.4-0.8,31.5-3.7,45.8-9.3C376.6,327.4,408.8,261.6,401.1,197.6z M345.7,220.5c-1.8,20.3-7.5,39-19.8,55.2
		c-11.4,15-25.9,26.9-45.1,27.6c-35.9,1.2-71.8,0.4-109.1,0.4c0-35.2-2.5-69.6,0.6-103.6c4.4-47.3,50.5-78.9,101.1-72.8
		C316.7,132.4,349.8,175.4,345.7,220.5z"/>
</g>
<g id="eos_account_creator" class="st0">
	<g id="Page-3" class="st1">
		<g id="ev-acc-gen-0" transform="translate(-496.000000, -14.000000)">
			<path id="Combined-Shape-Copy" class="st112" d="M790,128.7h1.7l31,60.8l31-60.8h46l-76.9,153.9l-57-114H657l40.4,81.2l22.9-45.8
				l23.2,47.4l-22.7,45.3l24.4,49l21.7-44.3l23.2,47.4L768.8,393l0,0l-1,2l-1.1,2.3l0,0l-20.5,41.4l-155.4-310h46.4L790,128.7
				L790,128.7z"/>
		</g>
	</g>
</g>
<g id="sense" class="st0">
	<g class="st1">
		<polygon class="st113" points="364.3,300.4 264,179.6 124.9,188.9 124.6,189.1 225.1,310 225.2,309.6 		"/>
		<polyline class="st114" points="264,179.6 124.9,188.9 124.6,189.1 225.1,310 225.2,309.6 		"/>
		<polygon class="st115" points="264.5,179.6 299.2,44.1 211.8,116.7 264,179.6 		"/>
		<polygon class="st116" points="211.8,116.7 124.9,188.9 264,179.6 		"/>
		<polygon class="st117" points="190.5,445.1 277.3,372.9 225.1,310 		"/>
		<polygon class="st112" points="364.5,300.6 364.7,300.3 364.3,300.4 		"/>
		<polygon class="st118" points="225.2,309.6 225.1,310 277.3,372.9 364.5,300.6 364.3,300.4 		"/>
	</g>
</g>
<g id="big_game" class="st0">
	<path class="st119" d="M84.6,192.3C86.8,183,94,170,108.7,170c12.7,0,55.1,0,55.1,0s35.9,1.4,35.9,33c0,21.6-13.6,29.8-25.5,35.9
		c13.3,4,27.3,10.4,27.3,33.4s-24.8,44.9-52.4,44.9c-27.7,0-83.7-0.4-88-0.4s-5.6-2.5-3.5-11.5L84.6,192.3z M121,227.9
		c2.9,0,14.4,0,20.5,0c5.7,0,19-5.2,19-16.4c0-11.1-10.1-12.6-13.6-12.6s-12.2,0-20,0c-3.2,0-5.8,0.4-7.3,5.8l-2.4,17.8
		C116.1,227.6,118.2,227.9,121,227.9z M141.7,254.3c-3.3-0.1-20.7-0.2-24.9-0.2c-4.1,0-5-0.4-5.8,3.2c0,0-4.1,22.1-5,26.3
		c-1,4.2,1.7,4.4,3.9,4.4c2.2,0,22.9,0.1,27.9,0.1c8,0,22.2-8.3,22.2-19C160,258.5,147,254.4,141.7,254.3z"/>
	<path class="st119" d="M270.5,241.2c0,9.9-9.3,18.1-19.3,18.1l0,0c-9.9,0-19.3-8.1-19.3-18.1l1.2-73.6c0-9.9,8.1-18.1,18.1-18.1
		l0,0c9.9,0,18.1,8.1,18.1,18.1L270.5,241.2z"/>
	<path class="st119" d="M283.5,284.9c0-10.9-10.4-13.7-15.7-13.7c-5.3,0-10.5,2.6-18,7.4c-7.5-4.8-12.8-7.4-18.1-7.4
		s-15.9,2.9-15.9,13.7c0,16.7,27.7,45.1,33.7,46.1l0,0l0,0l0,0l0,0C255.5,330,283.5,301.6,283.5,284.9z"/>
	<path class="st119" d="M355.8,169.5c12.7,0,47.8,2.2,67.1,46.8c1.2,1.8-0.2,4.6-3.7,4.6c-3.8,0-15.5,0-15.5,0s-9.4,1.4-16.5-5.4
		s-9.4-13.7-26.5-13.7s-26.3,11.4-26.3,35.1s17.1,48.8,36.6,48.8s27.7-11.8,28.1-22.8c-9.2,0-12.3,0-12.3,0s-15.5-0.7-15.5-14.2
		c0-13.5,8.8-11.8,17.7-11.8c11.7,0,27.9,0,27.9,0s11.3-2.1,13.5,9.7c2.2,11.9,10.5,51.8,12.1,59.1c1.6,7.2,1,12.2-5.2,12.2
		s-68.5,0-68.5,0s-70.1,1.6-70.1-82.8C298.6,179.9,333.6,169.5,355.8,169.5z"/>
</g>
<g id="eosbet" class="st0">
	<g id="symbols" class="st1">
		<g id="_x30_1_x5F__x5F_assets-_x2F_-eosbetlogo--new" transform="translate(-5.000000, -3.000000)">
			<g id="Group" transform="translate(5.000000, 3.000000)">
				
					<linearGradient id="Fill-19_1_" gradientUnits="userSpaceOnUse" x1="-2431.5857" y1="53.8295" x2="-2431.7346" y2="54.2247" gradientTransform="matrix(769.6095 0 0 -803.2133 1871672.75 43632.9844)">
					<stop  offset="0" style="stop-color:#0070EF"/>
					<stop  offset="1" style="stop-color:#429AFF"/>
				</linearGradient>
				<path id="Fill-19" class="st120" d="M165,86.5c-5.9,0-11.1,4.5-12.6,11.1l-49.7,285.2c0,0.7,0,1.5,0,2.2l0,0
					c0,7.4,5.9,13.4,13.4,13.4h147.1c33.4,0,60.2-7.4,81-22.3c20.1-14.9,33.4-35.6,37.9-63.1c0.7-5.2,1.5-9.7,1.5-14.9
					c0-14.1-4.5-26.7-11.9-37.9c-8.2-11.1-20.1-18.6-34.9-22.3c16.3-4.5,30.5-12.6,42.3-25.3c11.9-12.6,19.3-27.5,22.3-46
					c1.5-7.4,1.5-13.4,1.5-17.1c0-20.8-8.2-37.1-23.8-48.3c-16.3-9.7-38.6-14.9-66.8-14.9L165,86.5L165,86.5z M210.3,279.6
					c-7.4,0-14.1-3-19.3-8.2c-3.7-3.7-5.9-8.2-6.7-13.4c-0.7-7.4,1.5-14.1,4.5-20.8c3-5.2,6.7-10.4,11.1-14.9
					c11.1-11.9,21.5-23.8,30.4-36.4c1.5-2.2,3-4.5,5.2-6.7l0,0l0,0l0,0c2.2,3,3.7,5.2,5.9,8.2c9.7,12.6,20.1,24.5,30.5,36.4
					c4.5,4.5,8.2,10.4,11.1,16.3c3,5.9,4.5,11.9,3.7,18.6c-0.7,5.2-3,9.7-6.7,13.4c-5.2,5.2-12.6,8.2-20.1,8.2
					c-7.4,0-14.1-2.2-20.1-5.9c0,0-0.7,0-0.7-0.7c0,1.5,0,3,0.7,3.7c0.7,3.7,2.2,7.4,4.5,11.1c2.2,4.5,5.2,8.9,8.2,13.4l0,0
					c-5.9,0-28.2,0-34.2,0l0,0c3-4.5,5.2-8.9,8.2-13.4c2.2-3.7,3.7-7.4,4.5-11.1c0-1.5,0-2.2,0.7-3.7c-0.7,0-0.7,0-0.7,0.7
					c-5.9,3.7-12.6,5.2-19.3,5.2C211.8,279.6,211.1,279.6,210.3,279.6z"/>
			</g>
		</g>
	</g>
</g>
<g id="bethash" class="st0">
	<g class="st1">
		<path class="st121" d="M176.4,195.2c10.5-6.4,21.1-12.5,31.7-18.7c21-12.3,41.9-24.6,62.9-36.8c3.7-2.1,5.1-4.3,3.8-8.9
			c-3.6-13.4-6.6-27-9.9-40.4c-1.1-4.3-2.4-8.6-4.1-14.6c-7.1,11.7-13.4,21.6-19.3,31.8c-2.8,4.8-5.5,5.9-10.6,3
			c-16.5-9.8-33.2-19.2-49.9-28.7c-6.5-3.7-13.3-7.1-20.5-10.9c0,3.5-0.2,6.1,0,8.6c1.7,22.2,3.4,44.3,5.2,66.4
			c0.8,9.6,0.1,10.4-9.4,10.7c-11.1,0.4-22.1,0.8-33.2,1.2c-0.2,0.7-0.3,1.5-0.5,2.2c14.2,11.4,28.5,22.7,42.5,34.4
			C169.4,197.8,172.3,197.7,176.4,195.2z"/>
		<path class="st121" d="M383.7,220.9c3.6-23.4-2.4-46.5-24.7-60.2c-18.3-11.2-38.6-13.5-59.4-13.7c-2.4,0-5,1.1-7.2,2.3
			c-8.9,4.8-17.7,10-26.6,14.9c-29.1,16.2-58.2,32.5-87.4,48.5c-4.5,2.4-6.1,5.8-6.4,10.6c-1.7,25.9-3.7,51.7-5.3,77.6
			c-1.9,30.3-3.3,60.6-5.4,90.9c-0.4,6.4,1.5,7.9,7.5,7.9c36.8-0.2,73.7,0.1,110.5-0.1c10.8-0.1,21.9-0.4,32.4-2.6
			c33.3-6.9,59.1-23.6,67.2-58.9c5.8-25.5,0.5-49.1-26.6-60.8c-4.3-1.9-8.6-3.8-14.3-6.3c2.9-1.5,4.4-2.4,5.9-3.1
			C364.6,258.5,380.1,244.6,383.7,220.9z M299.3,263c-3.8,1.1-9.2,0.7-11.1,3.2c-2.1,2.8-1.2,8-1.5,12.1c-0.1,1.8-0.2,3.6-0.3,5.9
			c3.7,0.5,6.5,0.6,9.1,1.4c6.4,2,7,7.2,6.5,12.9c-0.5,5.6-4.5,5.1-8.2,4.7c-7.1-0.7-10.4,2.4-10.2,9.4c0,2.1-0.3,4.2-0.3,6.2
			c0,4.9,0.1,9.4-7.1,8.9c-7.8-0.5-10.3-2.4-10.6-9.6c-0.1-2.1,0-4.2,0-6.3c0.1-8.8-0.7-9.7-9.4-8.1c-2,0.4-4.3,2.7-5.2,4.7
			c-1.1,2.4-0.9,5.4-1.1,8.2c-0.5,9.4-5.7,13.5-14.7,10.6c-1.7-0.5-3.4-4-3.5-6.2c-0.2-5.5,0.5-11,0.8-16.8
			c-2.2-0.5-3.7-0.9-5.3-1.1c-8.8-1-12.5-5.9-9.6-14.2c0.7-2,5-4.2,7.4-4c7.8,0.8,9.8-2.8,9.2-9.6c-0.1-1.4-0.1-2.8,0.1-4.2
			c1-6.1-0.9-9.2-7.7-8.5c-3.2,0.3-7.3,0.8-7.1-4.9c0.2-5.5,0-11,7-12.5c1.6-0.3,3.2-0.3,4.8-0.2c4,0.3,5.4-1.6,5.3-5.4
			c-0.1-1.9,0.1-3.7,0.2-5.6c0.5-10.9,3.5-13.4,14.2-12.8c3.9,0.2,5.4,2,5.3,5.6c-0.1,3.2-0.3,6.5-0.4,9.7c0,3.3-2.5,8,3.9,8.3
			c5.2,0.2,11.2,1.7,10.7-7.1c-0.2-2.7,0.7-5.5,0.9-8.3c0.3-4.5,0-8.8,7-8.3c7.8,0.6,11,2.6,11.3,9.1c0.1,1.8,0.2,3.8-0.1,5.6
			c-1.2,6.8,1.1,10.1,8.5,9.1c3.7-0.5,7.4,0.1,7.2,5.1C305.2,255.5,305.8,261.1,299.3,263z"/>
		<path class="st121" d="M264.7,263.8c-3.7,0.1-9.2-2.5-10.5,3.5c-1.2,5.5-1.2,10.7-1.7,17.7c5.5,0,9.8,0,14.8,0
			c0.4-6,1-10.8,0.8-15.9C268,267.3,265.9,263.8,264.7,263.8z"/>
	</g>
</g>
<g id="trust_dice" class="st0">
	<g class="st1">
		<path class="st122" d="M273.3,355.7c-0.4-2-0.7-2.7-0.7-3.4c-2.5-57.8-4.9-115.5-7.5-173.3c-0.2-4.9,1.9-7.2,5.7-9.3
			c25.2-14.3,50.4-14.9,76.3-1.8c12.2,6.2,24.7,12,37.4,16.8c17.6,6.6,37.6,0.9,49.6-12.9c5.4-6.2,5.9-12.5,1.4-17.4
			c-4.8-5.3-10.6-5-17.7,0.9c-8.8,7.3-16.7,8.2-26.9,2.6c-6.6-3.6-12.7-7.9-19.4-11.3c-14.6-7.4-29-15.9-44.4-21
			c-21.2-7.1-42.9-3.1-63.8,3.2c-9.5-9.6-13.5-9.6-23.8,0.2c-34.6-12.4-67.4-7.8-98.4,11.9c-7.4,4.7-15.1,8.8-22.4,13.5
			c-12.4,8.1-24,10.2-35.8-1.4c-4.2-4.2-9.8-3.5-14.2,0.5c-4.7,4.3-5.2,9.7-1.8,14.8c2.2,3.3,5,6.3,8.1,8.6
			c15.2,11.5,31.7,13.7,49.2,5.8c13.2-5.9,26.3-12,39.4-18c23.5-10.9,46-7.5,68.1,4.2c4.8,2.5,6.6,5.6,6.3,11.2
			c-1.9,42.8-3.5,85.7-5.2,128.5c-0.6,15.4-1.4,30.8-2.1,47c-11.2,0-21.9-0.4-32.5,0.1c-10,0.5-16.9,8.2-16.7,17.6
			c0.2,9.3,7.6,16.5,17.6,16.5c35.1,0.1,70.3,0.2,105.4-0.1c3.9,0,8.3-1.9,11.4-4.3c5.8-4.6,7.2-11.3,4.7-18.3
			c-2.8-7.6-8.8-11.3-16.7-11.5C293.9,355.5,283.7,355.7,273.3,355.7z"/>
		<path class="st123" d="M434.7,265.8c-24.1-24.1-48.2-48.2-72.4-72.3c-4.7-4.7-9.7-4.9-14.4-0.2c-24,23.9-47.9,47.8-71.7,71.8
			c-5.7,5.7-5.5,9.8,0.1,15.4c23.7,23.8,47.5,47.5,71.3,71.2c2,1.9,4.8,3,7.4,4.7c2.8-1.6,5.2-2.5,6.8-4.1
			c24.4-24.2,48.7-48.5,72.9-72.8C439.1,275.1,439.3,270.4,434.7,265.8z M346.7,229.2c6,0,10.3,4.2,10.4,10.1
			c0.1,5.7-4.5,10.3-10.3,10.4c-5.8,0.1-10.3-4.4-10.3-10.3C336.5,233.2,340.4,229.3,346.7,229.2z M321,275.2
			c-5.9-0.1-10.2-4.7-10.1-10.6c0.1-5.8,4.7-10.2,10.5-10.1c5.8,0.1,10,4.5,9.9,10.6C331.3,271.1,327,275.3,321,275.2z M342.3,296.2
			c-6.1,0-10.2-4.1-10.3-10.2c-0.1-5.9,4.3-10.4,10.2-10.4c6.1,0,10.2,4.1,10.2,10.3C352.4,292.1,348.4,296.2,342.3,296.2z
			 M363.6,317.2c-6.1,0.2-10.4-3.8-10.6-9.9c-0.2-5.8,4.2-10.6,9.9-10.7c6-0.1,10.5,4.1,10.5,10.1
			C373.6,312.9,369.8,317,363.6,317.2z M378,260.7c-0.3,5.9-4.9,10.4-10.6,10.3c-5.6-0.1-10-5-9.9-10.9c0.1-6,4.5-10.1,10.6-10
			C374.2,250.3,378.3,254.7,378,260.7z M388.6,292c-5.6,0-10.2-4.8-10.1-10.7c0.1-6.2,3.8-9.5,9.7-10.1c5.8-0.6,10.8,4,10.9,9.7
			C399.3,287.1,394.6,292.1,388.6,292z"/>
		<path class="st123" d="M228.1,265.4c-23.9-24-47.8-48-71.8-71.9c-4.6-4.6-9.6-5-14.4-0.2c-24.1,24-48.2,48.1-72.3,72.2
			c-4.6,4.6-5,9.5-0.1,14.4c24.1,24.1,48.2,48.3,72.5,72.3c1.8,1.8,4.5,2.7,7.2,4.3c2.8-1.8,5.6-3,7.6-5
			c23.8-23.6,47.5-47.4,71.2-71.2C233.3,274.9,233.3,270.7,228.1,265.4z M156.9,229.2c6.1-0.2,10.6,3.9,10.7,9.8
			c0.2,5.8-4.3,10.5-10.1,10.7c-5.8,0.2-10.6-4.4-10.8-10.1C146.5,233.6,150.6,229.3,156.9,229.2z M125.6,282.2
			c-0.7,5.9-5.6,10.2-11.2,9.7c-5.8-0.5-10.1-5.4-9.7-11.2c0.4-5.9,5.3-10.1,11.1-9.7C121.4,271.5,126.2,276.9,125.6,282.2z
			 M125.7,260.3c0.1-5.9,4.5-10.2,10.6-10.2c5.9,0,10.6,4.6,10.5,10.3c-0.1,5.3-5.5,10.6-10.7,10.5
			C130.4,270.9,125.6,266,125.7,260.3z M140.5,317.1c-6.1-0.1-10.5-4.4-10.4-10.2c0-5.7,4.9-10.4,10.5-10.4
			c5.4,0,10.6,5.2,10.6,10.6C151.2,312.7,146.4,317.1,140.5,317.1z M161.8,296.3c-6.2,0.1-11-4.7-10.7-10.8
			c0.2-5.6,5.3-10.3,10.8-10.2c5.6,0.1,10.3,5,10.3,10.7C172.2,291.9,167.9,296.2,161.8,296.3z M182.6,275.2
			c-5.7,0-10.5-4.9-10.4-10.5s5.2-10.4,10.7-10.3c5.8,0.2,10.3,4.8,10.3,10.6C193.1,270.7,188.4,275.2,182.6,275.2z"/>
	</g>
</g>
<g id="Eos" class="st0">
	<path class="st124" d="M346.1,183.5L249.2,38.1l-90.3,145.6l-41.1,202L252.5,471l134.7-85.3L346.1,183.5z M336.1,222l31.6,155.5
		l-99.8,63.2L336.1,222z M249.7,70.4l78.5,117.9l-75.7,243.1l-75.8-243.3L249.7,70.4z M168.9,221.9l68.2,218.7l-99.8-63.2
		L168.9,221.9z"/>
</g>
<g id="Layer_2" class="st0">
	<path class="st125" d="M498.5,248c0,138.1-111.9,250-250,250s-250-111.9-250-250S110.4-2,248.5-2S498.5,109.9,498.5,248z
		 M991.5-205h-1265V821h1265V-205z"/>
</g>
<path class="st3" d="M340.9,183.1L247.5,42.9l-87.1,140.4l-39.6,194.8l129.9,82.3l129.9-82.3L340.9,183.1z M331.3,220.2l30.5,149.9
	L265.5,431L331.3,220.2z M248,74l75.7,113.7l-73.1,234.4l-73.1-234.6L248,74z M170.1,220.2L235.8,431l-96.3-61L170.1,220.2z"/>
</svg>
